<svg width="896" height="933" viewBox="0 0 896 933" fill="none" xmlns="http://www.w3.org/2000/svg">
<path fill-rule="evenodd" clip-rule="evenodd" d="M184.308 583.215C101.038 442.355 121.451 265.682 224.917 150.639C321.83 42.8818 478.35 45.1589 616.701 102.439C787.93 173.332 991.425 277.793 980.491 463.465C969.363 652.446 759.638 721.751 578.629 748.976C427.41 771.72 266.39 722.064 184.308 583.215Z" fill="#261C52"/>
<path fill-rule="evenodd" clip-rule="evenodd" d="M569.366 -280.989C704.743 -286.275 849.667 -274.439 940.837 -157.192C1038.01 -32.226 1076.32 152.392 1031.15 312.881C989.595 460.544 852.532 519.435 732.015 584.814C614.892 648.351 494.848 714.727 371.325 670.828C220.859 617.354 59.5583 514.456 27.2351 334.343C-4.77374 155.982 115.938 -2.47025 227.724 -129.351C319.711 -233.759 441.297 -275.989 569.366 -280.989Z" fill="#D4D2DC"/>
<path d="M249.465 191.733C241.896 199.164 234.888 208.38 228.658 218.982L257.051 278.4C259.489 261.774 262.49 246.154 265.558 232.257L249.465 191.733Z" fill="#FFD33A" stroke="white" stroke-width="0.798215"/>
<path d="M280.666 172.893C270.318 175.529 260.378 181.483 251.209 190.056L266.425 228.373C273.11 198.882 279.877 177.855 281.599 172.669C281.287 172.74 280.977 172.813 280.666 172.893ZM280.666 172.893L280.567 172.506L280.666 172.893Z" fill="#FFD33A" stroke="white" stroke-width="0.798215"/>
<path d="M251.443 363.622L201.562 301.282C200.854 306.583 200.316 311.936 199.947 317.338L200.115 317.519L251.967 372.898C251.795 369.891 251.661 366.849 251.564 363.773L251.443 363.622Z" fill="#FFD33A" stroke="white" stroke-width="0.798215"/>
<path d="M227.268 221.414C219.681 235.044 213.666 249.491 209.338 264.477L209.365 264.517L252.028 327.798C252.806 313.234 254.285 298.139 256.465 282.515L227.268 221.414Z" fill="#FFD33A" stroke="white" stroke-width="0.798215"/>
<path d="M356.756 258.254C355.335 247.316 352.865 236.54 349.381 226.077L258.505 282.054C256.931 293.229 255.57 305.297 254.655 317.903L356.756 258.254Z" fill="#FFD33A" stroke="white" stroke-width="0.798215"/>
<path d="M358.057 270.693C357.811 267.417 357.497 264.201 357.115 261.046L254.437 321.032C254.249 323.852 254.087 326.694 253.949 329.558L358.057 270.693Z" fill="#FFD33A" stroke="white" stroke-width="0.798215"/>
<path d="M251.826 331.86L208.466 267.544C205.69 277.505 203.544 287.631 202.041 297.862L202.16 298.011L251.465 359.632C251.278 350.638 251.399 341.381 251.826 331.86Z" fill="#FFD33A" stroke="white" stroke-width="0.798215"/>
<path d="M203.687 363.774C210.891 390.271 226.057 414.132 240.986 432.706C254.964 450.098 268.721 462.837 275.5 468.743C267.388 453.106 261.293 435.212 257.261 415.251L203.687 363.774Z" fill="#FFD33A" stroke="white" stroke-width="0.798215"/>
<path d="M347.052 347.958L347.076 348.11C350.349 338.857 353.048 329.41 355.156 319.823L254.395 377.776C255.207 389.3 256.693 400.766 258.845 412.116L346.523 348.343L347.052 347.958Z" fill="#FFD33A" stroke="white" stroke-width="0.798215"/>
<path d="M325.473 185.717C313.604 174.39 299.303 169.286 283.775 172.209L283.851 172.273L283.762 172.53C283.652 172.847 275.923 195.377 268.299 229.017L325.473 185.717Z" fill="#FFD33A" stroke="white" stroke-width="0.798215"/>
<path d="M199.727 320.876C199.532 324.407 199.415 327.951 199.376 331.51C199.314 340.915 200.392 350.291 202.585 359.434L202.682 359.175L203.12 359.595L256.4 410.79C254.55 400.66 253.231 390.439 252.45 380.171C252.385 379.334 252.329 378.489 252.272 377.646C252.257 377.413 252.241 377.18 252.226 376.947L199.727 320.876Z" fill="#FFD33A" stroke="white" stroke-width="0.798215"/>
<path d="M348.518 223.587C343.16 208.659 335.904 196.373 327.264 187.483L327.098 187.608L267.457 232.777C264.402 246.612 261.411 262.171 258.982 278.739L348.518 223.587Z" fill="#FFD33A" stroke="white" stroke-width="0.798215"/>
<path d="M279.8 471.789C284.711 465.086 324.531 409.828 345.654 352.074L259.375 414.829C263.485 435.026 270.009 454.441 279.8 471.789Z" fill="#FFD33A" stroke="white" stroke-width="0.798215"/>
<path d="M358.259 273.57L253.812 332.626C253.196 346.712 253.325 360.821 254.198 374.893L355.87 316.416C357.584 307.95 358.526 299.346 358.688 290.709C358.747 284.845 358.604 279.132 358.259 273.57Z" fill="#FFD33A" stroke="white" stroke-width="0.798215"/>
<path d="M105.97 420.226C104.88 430.777 105.36 442.345 107.325 454.484L167.09 482.138C158.364 467.778 150.713 453.833 144.211 441.174L105.97 420.226Z" fill="#FFD33A" stroke="white" stroke-width="0.798215"/>
<path d="M142.403 437.628C128.741 410.65 120.542 390.14 118.561 385.047C118.366 385.301 118.174 385.555 117.985 385.815C111.697 394.445 107.838 405.371 106.244 417.822L142.403 437.628Z" fill="#FFD33A" stroke="white" stroke-width="0.798215"/>
<path d="M217.127 551.352L138.948 535.153C141.784 539.688 144.782 544.153 147.944 548.55L148.189 548.581L223.447 558.163C221.396 555.956 219.353 553.699 217.316 551.391L217.127 551.352Z" fill="#FFD33A" stroke="white" stroke-width="0.798215"/>
<path d="M194.729 523.387C186.039 511.674 177.551 499.105 169.264 485.68L107.806 457.243C110.656 472.58 115.238 487.544 121.463 501.846L121.509 501.86L194.729 523.387Z" fill="#FFD33A" stroke="white" stroke-width="0.798215"/>
<path d="M231.033 403.028C222.962 395.51 214.187 388.786 204.83 382.949L170.541 484.024C176.457 493.635 183.106 503.797 190.442 514.091L231.033 403.028Z" fill="#FFD33A" stroke="white" stroke-width="0.798215"/>
<path d="M239.969 411.778C237.69 409.412 235.398 407.136 233.09 404.949L192.269 516.64C193.923 518.931 195.61 521.223 197.331 523.517L239.969 411.778Z" fill="#FFD33A" stroke="white" stroke-width="0.798215"/>
<path d="M214.6 548.264C208.72 541.457 202.908 534.25 197.164 526.644L122.747 504.765C126.962 514.208 131.768 523.375 137.136 532.214L137.323 532.252L214.6 548.264Z" fill="#FFD33A" stroke="white" stroke-width="0.798215"/>
<path d="M180.444 581.928C202.892 597.741 229.791 606.446 253.136 611.229C274.995 615.709 293.715 616.745 302.703 616.97C286.482 610.101 270.375 600.206 254.538 587.405L180.444 581.928Z" fill="#FFD33A" stroke="white" stroke-width="0.798215"/>
<path d="M280.774 478.307L280.889 478.409C277.508 469.194 273.561 460.197 269.07 451.469L228.429 560.371C236.404 568.728 244.862 576.611 253.758 583.98L280.612 478.941L280.774 478.307Z" fill="#FFD33A" stroke="white" stroke-width="0.798215"/>
<path d="M160.673 367.113C144.307 365.96 130.038 371.15 119.942 383.305L120.042 383.307L120.137 383.561C120.255 383.875 128.672 406.158 144.256 436.93L160.673 367.113Z" fill="#FFD33A" stroke="white" stroke-width="0.798215"/>
<path d="M150.033 551.414C152.135 554.258 154.306 557.062 156.545 559.828C162.497 567.111 169.307 573.645 176.827 579.288L176.737 579.027L177.342 579.071L251.031 584.519C243.145 577.896 235.611 570.865 228.459 563.455C227.875 562.851 227.291 562.235 226.709 561.621C226.549 561.452 226.39 561.283 226.23 561.115L150.033 551.414Z" fill="#FFD33A" stroke="white" stroke-width="0.798215"/>
<path d="M202.577 381.582C188.928 373.502 175.504 368.667 163.179 367.331L163.131 367.534L146.006 440.362C152.477 452.967 160.097 466.858 168.793 481.167L202.577 381.582Z" fill="#FFD33A" stroke="white" stroke-width="0.798215"/>
<path d="M307.96 616.575C307.467 608.279 302.892 540.322 282.323 482.368L255.899 585.731C271.946 598.665 289.354 609.458 307.96 616.575Z" fill="#FFD33A" stroke="white" stroke-width="0.798215"/>
<path d="M241.959 413.866L199.182 525.968C207.691 537.21 216.79 547.994 226.438 558.275L267.447 448.389C263.367 440.775 258.605 433.547 253.22 426.793C249.526 422.238 245.772 417.929 241.959 413.866Z" fill="#FFD33A" stroke="white" stroke-width="0.798215"/>
<path d="M365.615 353.866C356.12 358.594 346.606 365.193 337.405 373.35L346.041 438.635C353.499 423.576 361.181 409.649 368.394 397.381L365.615 353.866Z" fill="#FFD33A" stroke="white" stroke-width="0.798215"/>
<path d="M367.793 352.812C379.163 347.492 390.458 344.902 401.113 345.593L367.793 352.812ZM367.793 352.812L370.421 393.955C385.894 367.974 398.829 350.069 402.07 345.669C401.752 345.64 401.433 345.614 401.113 345.593L367.793 352.812Z" fill="#FFD33A" stroke="white" stroke-width="0.798215"/>
<path d="M314.366 517.95L286.197 443.245C283.885 448.068 281.718 452.991 279.697 458.016L279.802 458.239L311.997 526.934C312.763 524.021 313.576 521.087 314.434 518.131L314.366 517.95Z" fill="#FFD33A" stroke="white" stroke-width="0.798215"/>
<path d="M335.332 375.233C323.904 385.851 313.718 397.731 304.97 410.646L304.983 410.692L325.997 484.061C331.238 470.451 337.31 456.553 344.214 442.367L335.332 375.233Z" fill="#FFD33A" stroke="white" stroke-width="0.798215"/>
<path d="M447.092 450.294C449.121 439.452 450.103 428.441 450.024 417.413L346.296 442.559C341.345 452.701 336.321 463.757 331.554 475.463L447.092 450.294Z" fill="#FFD33A" stroke="white" stroke-width="0.798215"/>
<path d="M444.485 462.526C445.264 459.335 445.959 456.179 446.571 453.06L330.379 478.371C329.329 480.995 328.296 483.647 327.28 486.329L444.485 462.526Z" fill="#FFD33A" stroke="white" stroke-width="0.798215"/>
<path d="M303.193 413.293C297.473 421.908 292.303 430.875 287.711 440.14L287.778 440.319L315.623 514.162C318.225 505.551 321.2 496.784 324.55 487.861L303.193 413.293Z" fill="#FFD33A" stroke="white" stroke-width="0.798215"/>
<path d="M268.904 503.334C267.565 530.76 274.612 558.14 283.069 580.419C290.987 601.28 300.133 617.647 304.754 625.359C301.873 607.981 301.608 589.079 303.942 568.85L268.904 503.334Z" fill="#FFD33A" stroke="white" stroke-width="0.798215"/>
<path d="M410.135 532.606L410.11 532.758C416.084 524.969 421.57 516.819 426.538 508.353L312.798 532.324C310.009 543.534 307.878 554.898 306.416 566.357L409.513 532.808L410.135 532.606Z" fill="#FFD33A" stroke="white" stroke-width="0.798215"/>
<path d="M439.762 371.639C431.975 357.199 419.952 347.924 404.281 345.904L404.333 345.989L404.169 346.206C403.967 346.473 389.651 365.511 372.003 395.147L439.762 371.639Z" fill="#FFD33A" stroke="white" stroke-width="0.798215"/>
<path d="M278.396 461.312C277.12 464.61 275.913 467.945 274.776 471.317C271.81 480.242 269.937 489.493 269.197 498.866L269.369 498.649L269.655 499.184L304.502 564.341C305.874 554.135 307.779 544.007 310.21 534C310.21 533.999 310.21 533.999 310.21 533.999L310.598 534.094M278.396 461.312L311.415 530.824M278.396 461.312L310.993 530.865M278.396 461.312L310.993 530.865M310.598 534.094C310.794 533.282 311 532.464 311.207 531.647C311.277 531.373 311.346 531.098 311.415 530.824M310.598 534.094C308.127 544.267 306.199 554.565 304.824 564.943L310.598 534.094ZM311.415 530.824L311.054 530.994L310.993 530.865M311.415 530.824L311.028 530.727C311.016 530.773 311.005 530.819 310.993 530.865" fill="#FFD33A" stroke="white" stroke-width="0.798215"/>
<path d="M449.973 414.778C449.492 398.925 446.389 384.998 440.919 373.872L440.723 373.941L370.041 398.463C362.859 410.676 355.205 424.548 347.774 439.554L449.973 414.778Z" fill="#FFD33A" stroke="white" stroke-width="0.798215"/>
<path d="M307.901 629.586C314.644 624.729 369.594 584.485 407.534 536.088L306.083 569.101C303.749 589.58 303.952 610.061 307.901 629.586Z" fill="#FFD33A" stroke="white" stroke-width="0.798215"/>
<path d="M326.201 489.205C321.261 502.41 317.023 515.868 313.504 529.521L428.272 505.334C432.519 497.812 436.075 489.92 438.898 481.757C440.767 476.198 442.397 470.72 443.787 465.324L326.201 489.205Z" fill="#FFD33A" stroke="white" stroke-width="0.798215"/>
<g clip-path="url(#clip0)">
<path d="M809.015 490.882C811.162 492.99 813.15 495.605 814.918 498.613L806.862 515.47C806.171 510.753 805.319 506.322 804.449 502.379L809.015 490.882Z" fill="#FFD33A" stroke="white" stroke-width="0.226458"/>
<path d="M800.162 485.537C803.098 486.285 805.918 487.974 808.519 490.406L804.202 501.277C802.306 492.91 800.386 486.945 799.897 485.473C799.986 485.494 800.074 485.514 800.162 485.537Z" fill="#FFD33A" stroke="white" stroke-width="0.226458"/>
<path d="M808.454 539.648L822.605 521.962C822.806 523.466 822.959 524.984 823.064 526.517L823.016 526.568L808.305 542.28C808.354 541.427 808.392 540.564 808.419 539.691L808.454 539.648Z" fill="#FFD33A" stroke="white" stroke-width="0.226458"/>
<path d="M815.312 499.303C817.465 503.17 819.171 507.268 820.399 511.52L820.391 511.531L808.288 529.484C808.067 525.353 807.648 521.07 807.029 516.637L815.312 499.303Z" fill="#FFD33A" stroke="white" stroke-width="0.226458"/>
<path d="M778.575 509.754C778.978 506.651 779.679 503.594 780.667 500.626L806.449 516.507C806.896 519.677 807.282 523.101 807.542 526.677L778.575 509.754Z" fill="#FFD33A" stroke="white" stroke-width="0.226458"/>
<path d="M778.206 513.284C778.276 512.354 778.365 511.442 778.473 510.546L807.604 527.565C807.657 528.365 807.703 529.171 807.742 529.984L778.206 513.284Z" fill="#FFD33A" stroke="white" stroke-width="0.226458"/>
<path d="M808.344 530.637L820.646 512.39C821.433 515.216 822.042 518.089 822.469 520.992L822.435 521.034L808.447 538.516C808.5 535.964 808.466 533.338 808.344 530.637Z" fill="#FFD33A" stroke="white" stroke-width="0.226458"/>
<path d="M822.002 539.691C819.958 547.209 815.655 553.978 811.42 559.248C807.454 564.182 803.551 567.796 801.628 569.471C803.929 565.035 805.659 559.958 806.803 554.296L822.002 539.691Z" fill="#FFD33A" stroke="white" stroke-width="0.226458"/>
<path d="M781.328 535.204L781.322 535.247C780.393 532.622 779.627 529.942 779.029 527.222L807.616 543.664C807.385 546.933 806.964 550.186 806.353 553.406L781.478 535.313L781.328 535.204Z" fill="#FFD33A" stroke="white" stroke-width="0.226458"/>
<path d="M787.45 489.175C790.818 485.962 794.875 484.514 799.28 485.343L799.259 485.361L799.284 485.434C799.315 485.524 801.508 491.916 803.671 501.46L787.45 489.175Z" fill="#FFD33A" stroke="white" stroke-width="0.226458"/>
<path d="M823.125 527.521C823.18 528.522 823.213 529.528 823.224 530.538C823.242 533.206 822.936 535.866 822.314 538.46L822.286 538.386L822.162 538.506L807.046 553.03C807.571 550.156 807.945 547.256 808.167 544.343C808.167 544.343 808.167 544.343 808.167 544.343L808.054 544.334M823.125 527.521L808.12 543.381M823.125 527.521L808.231 543.428M823.125 527.521L808.231 543.428M808.054 544.334C808.072 544.098 808.088 543.859 808.104 543.62C808.11 543.54 808.115 543.46 808.12 543.381M808.054 544.334C807.829 547.296 807.446 550.243 806.907 553.164L808.054 544.334ZM808.12 543.381L808.203 543.458L808.231 543.428M808.12 543.381L808.233 543.388C808.232 543.402 808.231 543.415 808.231 543.428" fill="#FFD33A" stroke="white" stroke-width="0.226458"/>
<path d="M780.913 499.919C782.433 495.684 784.492 492.198 786.943 489.676L786.99 489.712L803.911 502.527C804.777 506.452 805.626 510.866 806.315 515.566L780.913 499.919Z" fill="#FFD33A" stroke="white" stroke-width="0.226458"/>
<path d="M800.408 570.336C799.015 568.434 787.718 552.757 781.725 536.372L806.203 554.176C805.037 559.906 803.186 565.414 800.408 570.336Z" fill="#FFD33A" stroke="white" stroke-width="0.226458"/>
<path d="M778.149 514.1L807.781 530.854C807.956 534.851 807.919 538.853 807.671 542.846L778.826 526.255C778.34 523.853 778.073 521.412 778.027 518.962C778.01 517.298 778.051 515.678 778.149 514.1Z" fill="#FFD33A" stroke="white" stroke-width="0.226458"/>
<path d="M849.725 555.707C850.034 558.7 849.897 561.982 849.34 565.426L832.384 573.272C834.86 569.198 837.031 565.241 838.875 561.65L849.725 555.707Z" fill="#FFD33A" stroke="white" stroke-width="0.226458"/>
<path d="M839.389 560.644C843.265 552.99 845.591 547.171 846.153 545.726C846.208 545.798 846.263 545.871 846.316 545.944C848.1 548.393 849.195 551.493 849.647 555.025L839.389 560.644Z" fill="#FFD33A" stroke="white" stroke-width="0.226458"/>
<path d="M818.189 592.908L840.369 588.312C839.564 589.599 838.713 590.866 837.816 592.113L837.747 592.122L816.396 594.84C816.978 594.214 817.557 593.574 818.135 592.919L818.189 592.908Z" fill="#FFD33A" stroke="white" stroke-width="0.226458"/>
<path d="M824.543 584.974C827.008 581.651 829.417 578.085 831.768 574.277L849.204 566.209C848.395 570.56 847.095 574.805 845.329 578.863L845.316 578.867L824.543 584.974Z" fill="#FFD33A" stroke="white" stroke-width="0.226458"/>
<path d="M814.243 550.828C816.533 548.695 819.023 546.787 821.677 545.131L831.405 573.807C829.727 576.533 827.841 579.417 825.76 582.337L814.243 550.828Z" fill="#FFD33A" stroke="white" stroke-width="0.226458"/>
<path d="M811.708 553.31C812.355 552.639 813.005 551.993 813.66 551.373L825.241 583.06C824.772 583.71 824.293 584.36 823.805 585.011L811.708 553.31Z" fill="#FFD33A" stroke="white" stroke-width="0.226458"/>
<path d="M818.906 592.032C820.575 590.101 822.223 588.056 823.853 585.898L844.965 579.691C843.77 582.37 842.406 584.971 840.883 587.478L840.83 587.489L818.906 592.032Z" fill="#FFD33A" stroke="white" stroke-width="0.226458"/>
<path d="M828.596 601.583C822.227 606.069 814.596 608.539 807.973 609.896C801.771 611.166 796.46 611.461 793.91 611.524C798.512 609.576 803.082 606.768 807.575 603.137L828.596 601.583Z" fill="#FFD33A" stroke="white" stroke-width="0.226458"/>
<path d="M800.131 572.185L800.099 572.214C801.058 569.599 802.178 567.047 803.452 564.571L814.982 595.467C812.719 597.838 810.32 600.074 807.796 602.165L800.177 572.365L800.131 572.185Z" fill="#FFD33A" stroke="white" stroke-width="0.226458"/>
<path d="M834.205 540.639C838.848 540.311 842.897 541.784 845.761 545.232L845.732 545.233L845.705 545.305C845.672 545.394 843.284 551.716 838.863 560.446L834.205 540.639Z" fill="#FFD33A" stroke="white" stroke-width="0.226458"/>
<path d="M837.224 592.926C836.627 593.732 836.012 594.528 835.376 595.313C833.688 597.379 831.756 599.233 829.622 600.834L829.648 600.76L829.476 600.772L808.57 602.318C810.807 600.439 812.945 598.444 814.974 596.342C815.14 596.171 815.305 595.996 815.47 595.821C815.516 595.774 815.561 595.726 815.606 595.678L837.224 592.926Z" fill="#FFD33A" stroke="white" stroke-width="0.226458"/>
<path d="M822.316 544.743C826.189 542.451 829.997 541.079 833.494 540.7L833.507 540.758L838.366 561.42C836.53 564.996 834.368 568.937 831.901 572.996L822.316 544.743Z" fill="#FFD33A" stroke="white" stroke-width="0.226458"/>
<path d="M792.419 611.412C792.559 609.059 793.857 589.779 799.692 573.337L807.189 602.662C802.636 606.331 797.698 609.393 792.419 611.412Z" fill="#FFD33A" stroke="white" stroke-width="0.226458"/>
<path d="M811.144 553.902L823.28 585.707C820.866 588.896 818.285 591.955 815.548 594.872L803.913 563.697C805.071 561.537 806.422 559.486 807.949 557.57C808.997 556.278 810.062 555.055 811.144 553.902Z" fill="#FFD33A" stroke="white" stroke-width="0.226458"/>
<path d="M776.062 536.88C778.755 538.222 781.455 540.094 784.065 542.408L781.615 560.93C779.499 556.657 777.32 552.706 775.273 549.226L776.062 536.88Z" fill="#FFD33A" stroke="white" stroke-width="0.226458"/>
<path d="M765.991 534.533C769.014 534.337 772.219 535.072 775.444 536.581L774.699 548.254C770.309 540.883 766.639 535.803 765.72 534.555C765.81 534.546 765.9 534.539 765.991 534.533ZM765.991 534.533L765.984 534.42L765.991 534.533Z" fill="#FFD33A" stroke="white" stroke-width="0.226458"/>
<path d="M790.602 583.432L798.593 562.237C799.249 563.606 799.864 565.003 800.437 566.428L800.408 566.491L791.274 585.981C791.056 585.154 790.826 584.322 790.582 583.483L790.602 583.432Z" fill="#FFD33A" stroke="white" stroke-width="0.226458"/>
<path d="M784.653 542.942C787.895 545.954 790.785 549.325 793.267 552.989L793.263 553.002L787.301 573.817C785.815 569.956 784.092 566.013 782.133 561.988L784.653 542.942Z" fill="#FFD33A" stroke="white" stroke-width="0.226458"/>
<path d="M752.946 564.237C752.371 561.161 752.092 558.038 752.114 554.909L781.543 562.043C782.947 564.92 784.373 568.057 785.725 571.378L752.946 564.237Z" fill="#FFD33A" stroke="white" stroke-width="0.226458"/>
<path d="M753.686 567.708C753.465 566.802 753.268 565.907 753.094 565.022L786.058 572.203C786.356 572.947 786.649 573.7 786.938 574.461L753.686 567.708Z" fill="#FFD33A" stroke="white" stroke-width="0.226458"/>
<path d="M793.772 553.74C795.395 556.184 796.862 558.728 798.164 561.357L798.145 561.407L790.246 582.357C789.507 579.914 788.663 577.427 787.713 574.895L793.772 553.74Z" fill="#FFD33A" stroke="white" stroke-width="0.226458"/>
<path d="M803.499 579.285C803.879 587.066 801.88 594.834 799.481 601.155C797.234 607.073 794.64 611.716 793.328 613.904C794.146 608.974 794.221 603.611 793.559 597.872L803.499 579.285Z" fill="#FFD33A" stroke="white" stroke-width="0.226458"/>
<path d="M763.431 587.59L763.438 587.633C761.743 585.423 760.187 583.111 758.777 580.709L791.046 587.51C791.837 590.69 792.442 593.914 792.857 597.165L763.608 587.647L763.431 587.59Z" fill="#FFD33A" stroke="white" stroke-width="0.226458"/>
<path d="M755.026 541.923C757.235 537.826 760.646 535.194 765.092 534.621L765.077 534.645L765.124 534.707C765.181 534.783 769.242 540.184 774.249 548.592L755.026 541.923Z" fill="#FFD33A" stroke="white" stroke-width="0.226458"/>
<path d="M800.806 567.363C801.168 568.299 801.511 569.245 801.833 570.202C802.675 572.734 803.206 575.358 803.416 578.017L803.367 577.956L803.286 578.108L793.4 596.593C793.011 593.698 792.47 590.824 791.78 587.985L791.67 588.012M800.806 567.363L793.308 596.764C792.918 593.82 792.371 590.898 791.67 588.012M800.806 567.363L791.558 587.096M800.806 567.363L791.558 587.096M791.67 588.012C791.615 587.781 791.556 587.55 791.497 587.318C791.478 587.24 791.458 587.162 791.438 587.084M791.67 588.012L791.78 587.985C791.725 587.754 791.666 587.522 791.607 587.29C791.591 587.225 791.574 587.16 791.558 587.096M791.438 587.084L791.541 587.132L791.558 587.096M791.438 587.084L791.548 587.057C791.552 587.07 791.555 587.083 791.558 587.096M791.438 587.084L791.558 587.096M793.425 596.785L803.328 578.27L803.297 578.232L793.425 596.785Z" fill="#FFD33A" stroke="white" stroke-width="0.226458"/>
<path d="M752.13 554.161C752.266 549.664 753.146 545.712 754.698 542.556L754.754 542.575L774.807 549.532C776.844 552.997 779.016 556.933 781.124 561.19L752.13 554.161Z" fill="#FFD33A" stroke="white" stroke-width="0.226458"/>
<path d="M792.435 615.104C790.522 613.726 774.932 602.308 764.169 588.578L792.951 597.944C793.613 603.754 793.555 609.564 792.435 615.104Z" fill="#FFD33A" stroke="white" stroke-width="0.226458"/>
<path d="M787.244 575.277C788.645 579.023 789.848 582.841 790.846 586.715L758.286 579.852C757.081 577.718 756.072 575.48 755.271 573.163C754.741 571.586 754.279 570.032 753.884 568.502L787.244 575.277Z" fill="#FFD33A" stroke="white" stroke-width="0.226458"/>
<path d="M580.771 313.23L575.676 316.46L578.772 310.833C577.897 310.126 576.811 309.732 575.687 309.714H575.609C575.254 309.719 574.9 309.692 574.55 309.635L572.82 310.755L573.565 309.406C572.341 308.979 571.283 308.178 570.541 307.116L567.451 309.075L569.405 305.526C568.583 304.464 567.534 303.599 566.337 302.993C565.139 302.387 563.821 302.055 562.479 302.021C559.26 302.021 556.398 303.935 554.551 306.914C554.002 307.801 553.228 308.528 552.307 309.019C551.387 309.511 550.353 309.75 549.31 309.714H549.137C545.587 309.714 542.709 313.739 542.709 318.672C542.709 323.605 545.587 327.658 549.137 327.658C549.917 327.656 550.686 327.463 551.376 327.098C552.584 326.511 553.905 326.194 555.248 326.168C556.591 326.142 557.923 326.408 559.153 326.947C560.194 327.41 561.32 327.65 562.459 327.65C563.598 327.65 564.725 327.41 565.766 326.947C566.986 326.418 568.307 326.158 569.637 326.184C570.967 326.21 572.276 326.522 573.475 327.098C574.166 327.464 574.934 327.656 575.715 327.658C579.265 327.658 582.143 323.638 582.143 318.672C582.148 316.772 581.676 314.9 580.771 313.23Z" fill="white"/>
<path opacity="0.03" d="M571.169 326.382C569.316 326.032 567.4 326.24 565.666 326.981C564.625 327.444 563.498 327.683 562.359 327.683C561.22 327.683 560.094 327.444 559.053 326.981C557.822 326.441 556.489 326.175 555.145 326.201C553.802 326.227 552.479 326.545 551.271 327.132C550.581 327.498 549.812 327.691 549.031 327.692C545.873 327.692 543.253 324.517 542.704 320.329C543.332 319.874 543.868 319.304 544.283 318.65C546.131 315.671 548.997 313.762 552.211 313.762C555.425 313.762 558.252 315.648 560.1 318.594C560.651 319.484 561.424 320.218 562.342 320.722C563.26 321.226 564.293 321.484 565.341 321.471H565.425C567.939 321.432 570.094 323.448 571.169 326.382Z" fill="black"/>
<path d="M769.456 291.394L764.361 294.624L767.458 288.997C766.583 288.29 765.497 287.896 764.373 287.878H764.294C763.94 287.883 763.586 287.856 763.236 287.799L761.506 288.919L762.251 287.57C761.027 287.143 759.969 286.342 759.227 285.28L756.136 287.239L758.09 283.69C757.268 282.628 756.22 281.763 755.022 281.157C753.824 280.551 752.507 280.219 751.165 280.185C747.945 280.185 745.084 282.099 743.236 285.078C742.687 285.965 741.913 286.692 740.993 287.183C740.072 287.675 739.038 287.914 737.996 287.878H737.822C734.272 287.878 731.395 291.903 731.395 296.836C731.395 301.769 734.272 305.822 737.822 305.822C738.603 305.82 739.371 305.627 740.062 305.262C741.27 304.675 742.591 304.358 743.934 304.332C745.276 304.306 746.609 304.572 747.839 305.111C748.879 305.574 750.006 305.814 751.145 305.814C752.284 305.814 753.41 305.574 754.451 305.111C755.672 304.582 756.992 304.322 758.322 304.348C759.653 304.374 760.962 304.686 762.161 305.262C762.851 305.628 763.62 305.82 764.4 305.822C767.95 305.822 770.828 301.802 770.828 296.836C770.833 294.936 770.362 293.064 769.456 291.394Z" fill="white"/>
<path opacity="0.03" d="M759.855 304.546C758.001 304.196 756.086 304.404 754.351 305.145C753.31 305.608 752.184 305.847 751.045 305.847C749.906 305.847 748.779 305.608 747.739 305.145C746.508 304.605 745.174 304.339 743.831 304.365C742.487 304.391 741.165 304.709 739.956 305.296C739.266 305.662 738.498 305.855 737.716 305.856C734.559 305.856 731.938 302.681 731.39 298.493C732.018 298.038 732.553 297.468 732.969 296.814C734.816 293.835 737.683 291.926 740.897 291.926C744.111 291.926 746.938 293.812 748.786 296.758C749.337 297.648 750.109 298.382 751.027 298.886C751.946 299.39 752.979 299.648 754.026 299.635H754.11C756.624 299.596 758.78 301.612 759.855 304.546Z" fill="black"/>
<path d="M643.631 344.248L651.839 349.466L646.867 340.424C648.277 339.302 650.02 338.681 651.822 338.66H651.951C652.513 338.669 653.075 338.627 653.63 338.537L656.402 340.295L655.198 338.134C657.162 337.444 658.859 336.155 660.052 334.45L665.019 337.596L661.917 331.891C664.823 328.409 668.736 326.292 673.042 326.292C678.21 326.292 682.807 329.36 685.78 334.131C686.656 335.56 687.894 336.733 689.368 337.53C690.843 338.328 692.502 338.721 694.178 338.671H694.458C700.158 338.671 704.777 345.133 704.777 353.106C704.777 361.079 700.158 367.545 694.458 367.545C693.203 367.541 691.967 367.231 690.858 366.644C688.918 365.701 686.796 365.191 684.639 365.15C682.482 365.108 680.342 365.536 678.367 366.403C676.693 367.151 674.881 367.538 673.048 367.538C671.215 367.538 669.402 367.151 667.729 366.403C665.768 365.554 663.647 365.136 661.51 365.177C659.373 365.219 657.27 365.719 655.344 366.644C654.245 367.216 653.026 367.517 651.788 367.523C646.083 367.523 641.464 361.062 641.464 353.083C641.433 350.003 642.178 346.965 643.631 344.248Z" fill="white"/>
<path opacity="0.03" d="M659.057 365.395C662.036 364.834 665.114 365.169 667.903 366.358C669.577 367.106 671.389 367.493 673.222 367.493C675.055 367.493 676.868 367.106 678.541 366.358C680.517 365.491 682.658 365.063 684.816 365.105C686.974 365.147 689.097 365.656 691.038 366.599C692.145 367.186 693.379 367.496 694.633 367.501C699.7 367.501 703.91 362.4 704.789 355.67C703.778 354.93 702.919 354.002 702.258 352.938C699.285 348.156 694.689 345.099 689.521 345.099C684.353 345.099 679.818 348.134 676.845 352.871C675.96 354.298 674.722 355.472 673.251 356.281C671.78 357.091 670.125 357.507 668.446 357.49H668.317C664.252 357.45 660.759 360.687 659.057 365.395Z" fill="black"/>
<path d="M536.5 630.138C718.478 630.138 866 624.873 866 618.38C866 611.886 718.478 606.622 536.5 606.622C354.522 606.622 207 611.886 207 618.38C207 624.873 354.522 630.138 536.5 630.138Z" fill="#FFD33A"/>
<path d="M758.544 357.327H314.456C308.141 357.327 303.022 362.446 303.022 368.76V601.208C303.022 607.522 308.141 612.641 314.456 612.641H758.544C764.859 612.641 769.977 607.522 769.977 601.208V368.76C769.977 362.446 764.859 357.327 758.544 357.327Z" fill="#F3EED8"/>
<path d="M769.977 368.76V375.244H303.022V368.76C303.022 365.728 304.227 362.82 306.371 360.676C308.515 358.532 311.423 357.327 314.456 357.327H758.544C761.577 357.327 764.485 358.532 766.629 360.676C768.773 362.82 769.977 365.728 769.977 368.76Z" fill="#261C52"/>
<path d="M315.061 369.925C316.916 369.925 318.42 368.421 318.42 366.566C318.42 364.71 316.916 363.206 315.061 363.206C313.205 363.206 311.701 364.71 311.701 366.566C311.701 368.421 313.205 369.925 315.061 369.925Z" fill="#FFD33A"/>
<path d="M323.459 369.925C325.314 369.925 326.818 368.421 326.818 366.566C326.818 364.71 325.314 363.206 323.459 363.206C321.604 363.206 320.1 364.71 320.1 366.566C320.1 368.421 321.604 369.925 323.459 369.925Z" fill="#FFD33A"/>
<path d="M331.857 369.925C333.713 369.925 335.217 368.421 335.217 366.566C335.217 364.71 333.713 363.206 331.857 363.206C330.002 363.206 328.498 364.71 328.498 366.566C328.498 368.421 330.002 369.925 331.857 369.925Z" fill="#FFD33A"/>
<path d="M422.679 404.919H379.331C376.459 404.919 374.13 407.247 374.13 410.12V443.389C374.13 446.262 376.459 448.591 379.331 448.591H422.679C425.551 448.591 427.88 446.262 427.88 443.389V410.12C427.88 407.247 425.551 404.919 422.679 404.919Z" fill="white"/>
<path d="M485.387 404.919H442.039C439.167 404.919 436.838 407.247 436.838 410.12V443.389C436.838 446.262 439.167 448.591 442.039 448.591H485.387C488.259 448.591 490.588 446.262 490.588 443.389V410.12C490.588 407.247 488.259 404.919 485.387 404.919Z" fill="#261C52"/>
<path d="M548.096 404.919H504.748C501.876 404.919 499.547 407.247 499.547 410.12V443.389C499.547 446.262 501.876 448.591 504.748 448.591H548.096C550.968 448.591 553.297 446.262 553.297 443.389V410.12C553.297 407.247 550.968 404.919 548.096 404.919Z" fill="white"/>
<path d="M610.805 404.919H567.457C564.585 404.919 562.256 407.247 562.256 410.12V443.389C562.256 446.262 564.585 448.591 567.457 448.591H610.805C613.677 448.591 616.006 446.262 616.006 443.389V410.12C616.006 407.247 613.677 404.919 610.805 404.919Z" fill="#FFD33A"/>
<path d="M673.513 404.919H630.165C627.293 404.919 624.964 407.247 624.964 410.12V443.389C624.964 446.262 627.293 448.591 630.165 448.591H673.513C676.385 448.591 678.714 446.262 678.714 443.389V410.12C678.714 407.247 676.385 404.919 673.513 404.919Z" fill="#261C52"/>
<path d="M422.679 478.265H379.331C376.459 478.265 374.13 480.594 374.13 483.467V516.736C374.13 519.609 376.459 521.937 379.331 521.937H422.679C425.551 521.937 427.88 519.609 427.88 516.736V483.467C427.88 480.594 425.551 478.265 422.679 478.265Z" fill="#FFD33A"/>
<path d="M485.387 478.265H442.039C439.167 478.265 436.838 480.594 436.838 483.467V516.736C436.838 519.609 439.167 521.937 442.039 521.937H485.387C488.259 521.937 490.588 519.609 490.588 516.736V483.467C490.588 480.594 488.259 478.265 485.387 478.265Z" fill="white"/>
<path d="M548.096 478.265H504.748C501.876 478.265 499.547 480.594 499.547 483.467V516.736C499.547 519.609 501.876 521.937 504.748 521.937H548.096C550.968 521.937 553.297 519.609 553.297 516.736V483.467C553.297 480.594 550.968 478.265 548.096 478.265Z" fill="#261C52"/>
<path d="M610.805 478.265H567.457C564.585 478.265 562.256 480.594 562.256 483.467V516.736C562.256 519.609 564.585 521.937 567.457 521.937H610.805C613.677 521.937 616.006 519.609 616.006 516.736V483.467C616.006 480.594 613.677 478.265 610.805 478.265Z" fill="white"/>
<path d="M673.513 478.265H630.165C627.293 478.265 624.964 480.594 624.964 483.467V516.736C624.964 519.609 627.293 521.937 630.165 521.937H673.513C676.385 521.937 678.714 519.609 678.714 516.736V483.467C678.714 480.594 676.385 478.265 673.513 478.265Z" fill="white"/>
<path d="M422.679 551.612H379.331C376.459 551.612 374.13 553.941 374.13 556.813V590.083C374.13 592.955 376.459 595.284 379.331 595.284H422.679C425.551 595.284 427.88 592.955 427.88 590.083V556.813C427.88 553.941 425.551 551.612 422.679 551.612Z" fill="white"/>
<path d="M485.387 551.612H442.039C439.167 551.612 436.838 553.941 436.838 556.813V590.083C436.838 592.955 439.167 595.284 442.039 595.284H485.387C488.259 595.284 490.588 592.955 490.588 590.083V556.813C490.588 553.941 488.259 551.612 485.387 551.612Z" fill="#FFD33A"/>
<path d="M548.096 551.612H504.748C501.876 551.612 499.547 553.941 499.547 556.813V590.083C499.547 592.955 501.876 595.284 504.748 595.284H548.096C550.968 595.284 553.297 592.955 553.297 590.083V556.813C553.297 553.941 550.968 551.612 548.096 551.612Z" fill="white"/>
<path opacity="0.3" d="M610.805 551.612H567.457C564.585 551.612 562.256 553.941 562.256 556.813V590.083C562.256 592.955 564.585 595.284 567.457 595.284H610.805C613.677 595.284 616.006 592.955 616.006 590.083V556.813C616.006 553.941 613.677 551.612 610.805 551.612Z" fill="#261C52"/>
<path d="M673.513 551.612H630.165C627.293 551.612 624.964 553.941 624.964 556.813V590.083C624.964 592.955 627.293 595.284 630.165 595.284H673.513C676.385 595.284 678.714 592.955 678.714 590.083V556.813C678.714 553.941 676.385 551.612 673.513 551.612Z" fill="#FFD33A"/>
<path d="M503.029 396.878L500.196 394.029C500.056 393.888 499.89 393.776 499.707 393.699C499.524 393.623 499.328 393.583 499.129 393.583C498.931 393.583 498.734 393.623 498.551 393.699C498.368 393.776 498.202 393.888 498.063 394.029L480.28 411.66L472.761 404.079C472.622 403.939 472.458 403.828 472.276 403.752C472.094 403.676 471.899 403.637 471.703 403.637C471.506 403.637 471.311 403.676 471.129 403.752C470.948 403.828 470.783 403.939 470.644 404.079L467.783 406.906C467.502 407.191 467.345 407.575 467.345 407.976C467.345 408.376 467.502 408.76 467.783 409.045L479.2 420.551C479.485 420.832 479.869 420.99 480.269 420.99C480.669 420.99 481.054 420.832 481.339 420.551L503.029 399.017C503.171 398.878 503.283 398.711 503.36 398.528C503.437 398.344 503.477 398.147 503.477 397.948C503.477 397.749 503.437 397.552 503.36 397.368C503.283 397.185 503.171 397.018 503.029 396.878Z" fill="#A3CF4D"/>
<path d="M693.395 396.878L690.562 394.029C690.423 393.888 690.256 393.776 690.073 393.699C689.89 393.623 689.694 393.583 689.495 393.583C689.297 393.583 689.101 393.623 688.918 393.699C688.735 393.776 688.568 393.888 688.429 394.029L670.647 411.66L663.127 404.079C662.989 403.939 662.824 403.828 662.642 403.752C662.461 403.676 662.266 403.637 662.069 403.637C661.872 403.637 661.677 403.676 661.496 403.752C661.314 403.828 661.149 403.939 661.011 404.079L658.15 406.906C657.869 407.191 657.711 407.575 657.711 407.976C657.711 408.376 657.869 408.76 658.15 409.045L669.566 420.551C669.851 420.832 670.235 420.99 670.635 420.99C671.036 420.99 671.42 420.832 671.705 420.551L693.395 399.017C693.537 398.878 693.65 398.711 693.727 398.528C693.803 398.344 693.843 398.147 693.843 397.948C693.843 397.749 693.803 397.552 693.727 397.368C693.65 397.185 693.537 397.018 693.395 396.878Z" fill="#A3CF4D"/>
<path d="M565.738 469.665L562.905 466.815C562.765 466.674 562.599 466.562 562.416 466.486C562.233 466.41 562.037 466.37 561.838 466.37C561.64 466.37 561.443 466.41 561.26 466.486C561.077 466.562 560.911 466.674 560.772 466.815L542.989 484.447L535.47 476.865C535.331 476.726 535.167 476.615 534.985 476.539C534.803 476.463 534.608 476.424 534.412 476.424C534.215 476.424 534.02 476.463 533.838 476.539C533.657 476.615 533.492 476.726 533.353 476.865L530.492 479.693C530.211 479.978 530.054 480.362 530.054 480.762C530.054 481.163 530.211 481.547 530.492 481.832L541.909 493.338C542.194 493.619 542.578 493.776 542.978 493.776C543.378 493.776 543.762 493.619 544.047 493.338L565.738 471.804C565.88 471.664 565.992 471.498 566.069 471.314C566.146 471.131 566.186 470.934 566.186 470.735C566.186 470.536 566.146 470.338 566.069 470.155C565.992 469.971 565.88 469.805 565.738 469.665Z" fill="#A3CF4D"/>
<path d="M627.886 545.811L625.053 542.961C624.914 542.82 624.748 542.709 624.565 542.632C624.381 542.556 624.185 542.516 623.987 542.516C623.788 542.516 623.592 542.556 623.409 542.632C623.226 542.709 623.06 542.82 622.92 542.961L605.138 560.593L597.618 553.012C597.48 552.872 597.315 552.761 597.133 552.685C596.952 552.609 596.757 552.57 596.56 552.57C596.363 552.57 596.168 552.609 595.987 552.685C595.805 552.761 595.64 552.872 595.502 553.012L592.641 555.811C592.36 556.096 592.202 556.48 592.202 556.881C592.202 557.281 592.36 557.665 592.641 557.95L604.057 569.456C604.342 569.737 604.726 569.894 605.127 569.894C605.527 569.894 605.911 569.737 606.196 569.456L627.886 547.922C628.164 547.641 628.32 547.262 628.32 546.867C628.32 546.472 628.164 546.092 627.886 545.811Z" fill="#A3CF4D"/>
<path d="M764.339 610.182C760.901 603.868 764.797 596.121 769.255 590.494C773.713 584.867 779.122 579.034 779.007 571.826C778.836 561.512 767.892 555.415 759.148 549.949C752.655 545.896 746.669 541.084 741.316 535.613C739.073 533.51 737.219 531.027 735.838 528.279C734.028 524.245 734.074 519.661 734.188 515.249C734.578 500.534 735.307 485.831 736.377 471.14" stroke="#261C52" stroke-width="4.58393" stroke-miterlimit="10"/>
<path d="M719.761 470.338C719.882 467.644 720.681 465.024 722.083 462.721C723.485 460.417 725.445 458.505 727.782 457.159L731.381 464.287L731.266 455.658C732.987 455.153 734.78 454.936 736.572 455.016C739.738 455.171 742.787 456.26 745.335 458.146C747.882 460.032 749.814 462.63 750.887 465.613C751.959 468.596 752.124 471.829 751.36 474.906C750.596 477.982 748.939 480.763 746.596 482.898C744.253 485.034 741.33 486.427 738.197 486.903C735.063 487.378 731.858 486.915 728.988 485.571C726.117 484.228 723.708 482.064 722.066 479.353C720.424 476.641 719.622 473.504 719.761 470.338Z" fill="#A3CF4D"/>
<path d="M748.411 579.195C750.098 582.464 752.858 585.055 756.227 586.532C759.597 588.01 763.372 588.284 766.92 587.308C770.468 586.333 773.573 584.168 775.715 581.177C777.856 578.185 778.904 574.547 778.683 570.875C778.462 567.202 776.986 563.717 774.501 561.003C772.016 558.29 768.674 556.513 765.035 555.97C761.395 555.427 757.68 556.152 754.512 558.023C751.343 559.894 748.914 562.796 747.632 566.245L757.682 574.416L746.623 571.86C746.627 574.412 747.24 576.927 748.411 579.195Z" fill="#A3CF4D"/>
<path d="M756.433 547.967C760.386 548.171 764.275 546.907 767.353 544.418C770.43 541.928 772.479 538.389 773.105 534.48C773.73 530.571 772.889 526.569 770.742 523.244C768.595 519.918 765.295 517.503 761.475 516.464L761.567 523.087L757.923 515.879C755.813 515.776 753.703 516.091 751.714 516.805C749.726 517.519 747.898 518.619 746.336 520.042C744.774 521.464 743.509 523.181 742.612 525.094C741.715 527.007 741.205 529.079 741.111 531.189C741.017 533.045 741.25 534.903 741.799 536.679C742.776 539.84 744.707 542.621 747.327 544.642C749.947 546.662 753.127 547.824 756.433 547.967Z" fill="#A3CF4D"/>
<path d="M717.331 521.987C719.8 522.078 722.256 521.597 724.509 520.583C726.761 519.568 728.749 518.047 730.317 516.138C731.886 514.229 732.992 511.984 733.55 509.577C734.107 507.171 734.102 504.668 733.534 502.263C732.965 499.859 731.849 497.619 730.273 495.717C728.697 493.814 726.702 492.302 724.445 491.297C722.188 490.292 719.73 489.823 717.261 489.924C714.793 490.025 712.381 490.696 710.214 491.882L713.056 499.675L707.212 494.06C704.08 496.928 702.213 500.921 702.021 505.164C701.944 506.654 702.079 508.147 702.422 509.599C703.216 513.007 705.102 516.063 707.794 518.299C710.486 520.536 713.835 521.831 717.331 521.987Z" fill="#A3CF4D"/>
<path opacity="0.1" d="M721.915 474.624C725.628 475.025 729.238 476.182 732.962 476.411C736.687 476.641 740.778 475.758 743.139 472.859C744.399 471.3 745.041 469.329 746.107 467.622C747.124 466.036 748.518 464.725 750.163 463.806C751.134 465.834 751.667 468.044 751.728 470.292C751.79 472.54 751.378 474.775 750.519 476.854C749.661 478.932 748.375 480.807 746.746 482.356C745.116 483.906 743.179 485.095 741.06 485.848C738.941 486.6 736.688 486.899 734.446 486.725C732.204 486.55 730.024 485.907 728.047 484.835C726.07 483.764 724.34 482.289 722.97 480.506C721.6 478.723 720.619 476.672 720.093 474.486C720.704 474.509 721.311 474.555 721.915 474.624Z" fill="black"/>
<path opacity="0.1" d="M717.331 521.987C720.105 522.128 722.868 521.546 725.349 520.299C727.831 519.051 729.946 517.181 731.488 514.871C733.03 512.561 733.946 509.89 734.146 507.12C734.346 504.35 733.824 501.575 732.63 499.068C731.354 499.926 730.256 501.023 729.398 502.299C728.252 504.03 727.553 506.035 726.212 507.617C723.703 510.562 719.428 511.524 715.543 511.352C711.658 511.181 707.911 510.069 704.083 509.714C703.545 509.714 703.006 509.634 702.456 509.622C703.253 513.021 705.136 516.067 707.82 518.298C710.505 520.53 713.844 521.825 717.331 521.987Z" fill="black"/>
<path opacity="0.1" d="M756.433 547.967C759.181 548.106 761.918 547.536 764.382 546.311C766.847 545.087 768.955 543.25 770.504 540.976C772.053 538.701 772.991 536.067 773.228 533.326C773.465 530.585 772.993 527.828 771.857 525.322C770.523 526.193 769.358 527.3 768.419 528.588C767.17 530.353 766.391 532.381 764.982 534.009C762.266 537.034 757.705 538.1 753.602 538.008C749.499 537.916 745.775 536.942 741.821 536.633C742.79 539.799 744.714 542.587 747.33 544.616C749.946 546.646 753.125 547.816 756.433 547.967Z" fill="black"/>
<path opacity="0.1" d="M748.41 579.195C750.15 583.083 753.364 586.122 757.344 587.641C761.324 589.161 765.745 589.037 769.634 587.297C773.523 585.557 776.561 582.343 778.08 578.363C779.6 574.383 779.476 569.962 777.736 566.073C776.406 566.938 775.215 568 774.206 569.225C772.671 571.081 771.662 573.201 769.897 574.954C766.608 578.186 761.302 579.538 756.57 579.642C753.843 579.654 751.119 579.505 748.41 579.195Z" fill="black"/>
<path d="M788.6 602.905C788.6 602.905 775.902 602.515 772.075 599.788C768.247 597.06 752.593 593.817 751.607 598.183C750.622 602.55 732.527 619.957 746.852 620.026C761.176 620.095 780.154 617.734 783.981 615.442C787.809 613.15 788.6 602.905 788.6 602.905Z" fill="#261C52"/>
<path opacity="0.2" d="M746.6 618.513C760.936 618.628 779.902 616.279 783.718 613.929C786.629 612.153 787.786 605.804 788.176 602.871H788.6C788.6 602.871 787.798 613.116 784.016 615.476C780.234 617.837 761.222 620.152 746.886 620.06C742.749 620.06 741.328 618.559 741.408 616.382C741.947 617.665 743.517 618.456 746.6 618.513Z" fill="black"/>
<path d="M310.184 613.481C307.726 608.934 310.514 603.358 313.717 599.298C316.919 595.239 320.827 591.023 320.749 585.861C320.626 578.431 312.742 574.047 306.438 570.105C301.764 567.183 297.452 563.718 293.594 559.781C291.989 558.261 290.662 556.473 289.674 554.495C288.37 551.589 288.409 548.286 288.493 545.1C288.762 534.5 289.284 523.908 290.061 513.326" stroke="#261C52" stroke-width="2.23959" stroke-miterlimit="10"/>
<path d="M278.057 513.738C278.143 511.793 278.718 509.902 279.729 508.238C280.74 506.574 282.154 505.192 283.84 504.22L286.438 509.354L286.36 503.139C288.717 502.445 291.233 502.518 293.546 503.348C295.859 504.177 297.848 505.72 299.227 507.753C300.606 509.787 301.302 512.206 301.217 514.661C301.131 517.117 300.267 519.482 298.75 521.414C297.233 523.347 295.141 524.747 292.776 525.413C290.411 526.079 287.896 525.976 285.593 525.12C283.29 524.263 281.319 522.697 279.965 520.647C278.61 518.597 277.942 516.17 278.057 513.716V513.738Z" fill="#A3CF4D"/>
<path d="M298.723 591.163C299.939 593.526 301.93 595.4 304.363 596.469C306.796 597.539 309.523 597.739 312.086 597.036C314.65 596.334 316.893 594.771 318.441 592.61C319.989 590.45 320.747 587.823 320.588 585.17C320.428 582.517 319.362 579.999 317.566 578.039C315.771 576.08 313.357 574.797 310.728 574.406C308.099 574.015 305.416 574.54 303.128 575.892C300.84 577.245 299.087 579.343 298.163 581.835L305.397 587.72L297.424 585.878C297.429 587.718 297.875 589.53 298.723 591.163Z" fill="#A3CF4D"/>
<path d="M304.445 568.666C307.286 568.795 310.074 567.875 312.281 566.081C314.487 564.287 315.957 561.744 316.41 558.937C316.864 556.13 316.269 553.254 314.741 550.856C313.212 548.459 310.855 546.707 308.118 545.934L308.18 550.705L305.554 545.515H305.526C303.991 545.419 302.454 545.63 301.002 546.134C299.55 546.639 298.213 547.427 297.068 548.453C295.924 549.48 294.995 550.723 294.336 552.112C293.676 553.5 293.3 555.006 293.228 556.542C293.157 558.077 293.391 559.612 293.918 561.056C294.445 562.5 295.254 563.824 296.298 564.953C297.342 566.081 298.6 566.99 299.998 567.628C301.397 568.266 302.909 568.619 304.445 568.666Z" fill="#A3CF4D"/>
<path d="M276.315 549.949C279.385 550.09 282.385 549.008 284.657 546.938C286.929 544.869 288.287 541.983 288.432 538.913C288.519 537.018 288.135 535.131 287.312 533.421C286.634 531.982 285.668 530.699 284.472 529.651C283.277 528.602 281.878 527.812 280.364 527.328C278.849 526.844 277.251 526.677 275.669 526.838C274.088 527 272.556 527.485 271.17 528.264L273.214 533.863L269.003 529.821C267.318 531.367 266.127 533.377 265.582 535.599C265.037 537.82 265.161 540.154 265.939 542.304C266.718 544.455 268.115 546.328 269.955 547.686C271.796 549.045 273.997 549.828 276.282 549.938L276.315 549.949Z" fill="#A3CF4D"/>
<path opacity="0.1" d="M279.618 515.823C282.289 516.12 284.893 516.943 287.575 517.117C290.257 517.29 293.207 516.641 294.904 514.552C295.816 513.432 296.275 512.01 297.048 510.784C297.78 509.642 298.782 508.698 299.965 508.035C300.711 509.504 301.136 511.115 301.21 512.761C301.284 514.407 301.007 516.05 300.396 517.58C299.785 519.111 298.855 520.493 297.668 521.636C296.48 522.778 295.063 523.654 293.511 524.205C291.958 524.757 290.306 524.971 288.664 524.833C287.022 524.696 285.428 524.209 283.989 523.407C282.55 522.605 281.298 521.505 280.318 520.181C279.337 518.857 278.65 517.339 278.303 515.728C278.739 515.745 279.182 515.778 279.618 515.823Z" fill="black"/>
<path opacity="0.1" d="M276.316 549.949C279.386 550.09 282.386 549.008 284.658 546.938C286.929 544.869 288.287 541.983 288.432 538.913C288.52 537.018 288.135 535.131 287.312 533.421C286.393 534.04 285.603 534.831 284.983 535.75C284.16 536.999 283.656 538.437 282.688 539.58C280.885 541.702 277.8 542.379 275.006 542.267C272.212 542.155 269.508 541.349 266.725 541.091C266.339 541.058 265.947 541.03 265.555 541.019C266.13 543.476 267.493 545.679 269.436 547.291C271.378 548.903 273.794 549.836 276.316 549.949Z" fill="black"/>
<path opacity="0.1" d="M304.445 568.666C306.422 568.76 308.391 568.344 310.162 567.46C311.934 566.576 313.449 565.253 314.564 563.617C315.679 561.98 316.355 560.086 316.53 558.113C316.704 556.141 316.369 554.157 315.558 552.351C314.606 552.981 313.776 553.78 313.112 554.708C312.21 555.979 311.65 557.44 310.592 558.627C308.638 560.805 305.352 561.572 302.39 561.505C299.523 561.438 296.757 560.738 293.907 560.52C294.614 562.796 296.004 564.799 297.89 566.257C299.775 567.715 302.064 568.556 304.445 568.666Z" fill="black"/>
<path opacity="0.1" d="M298.723 591.163C300.08 593.798 302.395 595.813 305.192 596.793C307.99 597.774 311.056 597.645 313.761 596.434C316.467 595.223 318.605 593.022 319.737 590.282C320.869 587.543 320.909 584.474 319.848 581.706C318.894 582.325 318.036 583.08 317.3 583.946C316.18 585.29 315.475 586.813 314.198 588.067C311.83 590.39 308.006 591.348 304.602 591.426C302.638 591.454 300.675 591.366 298.723 591.163Z" fill="black"/>
<path d="M327.658 608.246C327.658 608.246 318.515 607.966 315.755 606.006C312.994 604.046 301.69 601.7 301.007 604.847C300.324 607.994 287.262 620.524 297.586 620.586C307.911 620.647 321.578 618.979 324.327 617.299C327.076 615.619 327.658 608.246 327.658 608.246Z" fill="#261C52"/>
<path opacity="0.2" d="M297.424 619.483C307.748 619.567 321.415 617.876 324.164 616.202C326.258 614.925 327.098 610.345 327.373 608.234H327.68C327.68 608.234 327.121 615.608 324.349 617.282C321.578 618.956 307.933 620.642 297.608 620.569C294.63 620.569 293.599 619.483 293.655 617.915C294.064 618.872 295.184 619.466 297.424 619.483Z" fill="black"/>
</g>
<path opacity="0.1" d="M304.642 300.83C303.167 300.19 301.89 299.168 300.943 297.87C299.497 295.829 298.956 293.355 304.109 292.745C313.203 291.679 343.52 282.384 348.553 269.116C353.585 255.848 359.559 259.148 359.559 259.148C359.559 259.148 375.758 294.823 383.532 300.977C383.532 300.977 404.391 329.377 414.106 332.458C423.822 335.539 404.808 344.497 403.363 344.454C402.194 344.399 385.503 348.492 370.024 359.536C364.237 363.692 359.492 369.132 356.159 375.429C354.389 378.744 351.872 381.234 349.489 375.658C345.204 365.624 332.17 327.407 320.824 318.679C320.824 318.679 308.544 302.569 304.642 300.83Z" fill="#261C52"/>
<path d="M311.018 300.399C309.647 299.848 308.454 298.932 307.568 297.75C306.229 295.93 305.754 293.659 310.604 293.04C319.201 291.94 347.97 283.06 352.895 270.864C357.819 258.668 363.446 261.618 363.446 261.618C363.446 261.618 378.254 293.937 385.507 299.464C385.507 299.464 404.819 325.091 413.944 327.77C423.069 330.449 404.999 338.877 403.635 338.866C402.552 338.851 386.718 342.767 371.929 353.087C366.448 356.918 361.904 361.937 358.636 367.77C356.919 370.819 354.504 373.126 352.331 368.063C348.425 358.961 336.645 324.246 326.053 316.468C326.053 316.468 314.677 301.957 311.018 300.399Z" fill="#261C52"/>
<path opacity="0.1" d="M679.961 332.093C679.961 332.093 677.861 333.167 667.915 336.073C657.968 338.98 678.205 335.233 679.961 332.093Z" fill="black"/>
<path opacity="0.1" d="M678.461 342.362C678.461 342.362 672.09 347.104 669.001 347.4C665.912 347.696 676.479 347.19 678.461 342.362Z" fill="black"/>
<path opacity="0.1" d="M682.262 365.805C682.262 365.805 675.892 370.547 672.803 370.843C669.714 371.139 680.28 370.645 682.262 365.805Z" fill="black"/>
<path d="M588.99 365.705C588.125 365.626 587.269 365.463 586.435 365.217C586.39 364.94 585.931 364.731 584.945 364.644L584.746 364.635C581.76 363.336 579.119 361.356 577.036 358.853C574.363 355.624 566.57 351.379 566.57 351.379C566.57 351.379 561.156 346.365 557.456 345.807C553.757 345.249 543.962 334.403 535.664 324.399C527.365 314.396 514.337 303.306 514.337 303.306L508.899 296.645C508.899 296.645 502.434 291.571 501.008 288.857C500.226 287.386 497.601 286.526 494.889 286.142C492.021 284.837 487.199 284.614 484.926 285C483.538 285.246 479.572 288.664 475.653 292.319L480.559 253.008C480.626 252.463 480.507 251.91 480.22 251.442C479.933 250.973 479.496 250.615 478.98 250.427L468.4 254.991C468.019 255.154 467.689 255.415 467.442 255.747C467.195 256.08 467.04 256.471 466.994 256.883L462.252 299.107L449.621 307.471C449.413 305.962 448.836 304.527 447.941 303.293C441.505 294.044 430.068 310.494 425.771 317.4C425.584 317.392 425.4 317.442 425.228 317.475C425.144 317.68 425.013 317.862 424.846 318.008C421.894 316.396 419.11 314.495 416.534 312.332C416.356 312.118 416.212 311.878 416.104 311.621C415.587 310.139 413.406 307.53 412.144 306.083C408.321 301.355 402.589 294.991 401.748 294.565C401.301 294.345 399.221 292.591 396.642 290.368C396.273 289.462 395.857 288.577 395.394 287.715C393.635 284.471 390.429 283.384 388.167 283.028C386.138 281.293 384.588 279.997 384.171 279.767C382.749 278.974 379.637 273.582 378.173 270.163C376.709 266.744 364.963 265.766 364.963 265.766C365.086 261.168 366.362 256.676 368.674 252.7C368.808 252.472 368.935 252.249 369.068 252.033C371.876 251.355 374.516 250.114 376.83 248.384C379.143 246.655 381.081 244.474 382.525 241.972C383.97 239.471 384.891 236.703 385.233 233.835C385.575 230.967 385.33 228.059 384.514 225.289C386.047 224.827 387.878 225.146 389.487 224.664C391.649 224.021 393.658 222.392 394.088 220.192C394.299 218.717 394.023 217.213 393.303 215.909C392.648 214.612 391.796 213.424 390.778 212.388C388.031 209.226 383.961 207.169 379.964 205.583C374.896 203.591 369.552 201.99 364.096 202.035C358.641 202.081 353.032 203.917 349.332 207.904C348.67 208.733 347.901 209.469 347.045 210.095C345.755 210.89 344.147 210.956 342.636 210.827C337.652 210.414 332.53 208.202 327.834 209.917C322.191 211.999 319.943 218.654 318.954 224.565C317.927 230.651 317.457 236.867 315.562 242.737C313.667 248.606 310.06 254.261 304.499 256.961C302.875 257.747 301.117 258.268 299.579 259.216C298.041 260.164 296.7 261.683 296.61 263.483C296.496 265.938 298.616 267.847 299.667 270.069C300.2 271.201 300.481 272.479 301.009 273.593C301.062 273.707 301.116 273.815 301.175 273.923L301.207 273.983C301.256 274.067 301.305 274.151 301.36 274.236C301.374 274.266 301.393 274.295 301.414 274.32L301.568 274.55C301.589 274.577 301.61 274.606 301.628 274.635C301.706 274.732 301.783 274.83 301.867 274.921C301.95 275.013 302.068 275.13 302.175 275.223C302.282 275.316 302.335 275.429 302.424 275.527C304.815 278.174 309.335 276.949 312.478 278.636C313.077 278.97 313.624 279.39 314.102 279.883C315.123 281.101 315.921 282.585 316.843 283.929L316.898 284.001L317.184 284.401L317.333 284.59C317.399 284.681 317.471 284.772 317.544 284.857C317.616 284.943 317.799 285.162 317.927 285.303L318.179 285.555C318.279 285.676 318.378 285.798 318.484 285.914C321.004 288.667 324.866 289.766 328.583 290.196C330.617 290.426 332.729 290.488 334.654 289.781C335.532 289.453 336.347 288.976 337.062 288.37C338.121 289.281 339.259 290.094 340.464 290.801C343.445 292.954 346.766 294.989 349.882 297.271C353.083 300.612 356.93 305.319 356.83 308.612C356.703 312.982 362.308 321.835 364.829 325.572C364.93 326.297 364.969 326.709 364.969 326.709L376.465 345.454C376.465 345.454 377.257 348.332 382.066 348.713C380.923 354.143 380.781 363.778 385.007 364.982C389.909 366.381 398.021 365.779 399.122 367.289C400.224 368.799 419.563 367.459 419.563 367.459C419.563 367.459 430.366 365.535 437.363 367.998C441.721 369.432 446.441 369.307 450.717 367.646C450.717 367.646 458.42 367.277 459.553 364.324C459.759 364.055 459.904 363.744 459.976 363.413C460.038 363.088 460.139 362.772 460.277 362.472C461.107 361.251 462.322 360.938 461.885 360.637C462.493 360.161 462.621 360.05 460.829 359.662C459.642 359.429 458.422 359.414 457.229 359.618C457.682 359.202 458.13 358.76 458.573 358.292C458.841 358.32 459.111 358.332 459.38 358.33C462.056 358.606 461.923 357.434 464.459 356.925C467.415 356.336 470.352 356.18 474.148 355.916C477.944 355.653 481.996 353.662 483.717 351.675C485.438 349.687 492.21 351.19 494.265 347.789C496.029 344.883 490.402 342.056 487.328 342.148C486.597 342.012 485.842 342.106 485.166 342.416C483.311 343.502 476.828 343.74 474.606 343.777C474.129 343.579 472.208 342.817 469.938 342.125C472.076 338.962 475.064 334.655 477.75 331.194C482.622 324.913 485.448 322.713 485.448 322.713C486.46 321.238 487.707 319.94 489.141 318.871C492.158 327.693 511.662 343.131 521.305 345.26C531.91 347.597 542.003 356.805 542.003 356.805C542.003 356.805 540.843 360.852 540.761 362.605C540.725 363.388 542.648 363.864 545.076 364.17C546.656 365.474 554.605 365.708 557.674 365.341C561.103 364.914 570.612 367.787 578.462 368.649C586.312 369.511 593.739 366.119 588.99 365.705Z" fill="url(#paint0_linear)"/>
<path d="M397.874 290.455L396.713 299.703L400.766 309.685L406.876 315.592L413.619 320.005L419.84 324.781L426.538 319.305C426.538 319.305 417.402 312.824 416.656 310.733C415.909 308.642 411.87 304.29 411.87 304.29L406.165 298.238L401.519 293.588L397.874 290.455Z" fill="#FFD33A"/>
<path opacity="0.1" d="M397.874 290.455L396.713 299.703L400.766 309.685L406.876 315.592L413.619 320.005L419.84 324.781L426.538 319.305C426.538 319.305 417.402 312.824 416.656 310.733C415.909 308.642 411.87 304.29 411.87 304.29L406.165 298.238L401.519 293.588L397.874 290.455Z" fill="black"/>
<path d="M370.368 253.065C367.817 257.539 365.529 264.181 367.433 271.879C370.955 286.101 341.273 265.053 341.273 265.053C341.273 265.053 348.323 255.516 350.646 247.106C351.399 244.382 351.655 241.77 350.993 239.642C348.355 230.962 374.801 247.021 374.801 247.021C373.07 248.837 371.58 250.868 370.368 253.065Z" fill="#A0616A"/>
<path opacity="0.1" d="M365.881 265.814C365.881 265.814 377.37 266.775 378.785 270.121C380.199 273.467 383.229 278.745 384.622 279.524C386.015 280.303 400.52 293.383 401.774 294.01C403.028 294.636 415.353 308.757 415.287 310.183C415.221 311.609 428.217 320.484 436.697 322.16C445.177 323.837 457.551 339.817 461.424 339.422C465.296 339.028 473.008 342.245 473.008 342.245C473.008 342.245 481.854 342.228 484.054 340.9C486.253 339.573 494.088 342.795 492.082 346.123C490.077 349.451 483.437 348.006 481.778 349.927C480.119 351.847 476.179 353.802 472.46 354.057C468.74 354.312 465.88 354.461 463.001 355.042C460.121 355.623 460.768 357.076 456.505 356.17C452.242 355.263 436.993 324.88 436.993 324.88L418.883 315.628C418.883 315.628 412.174 309.611 411.687 307.732C411.2 305.852 398.414 292.571 398.414 292.571L381.503 278.946L365.881 265.814Z" fill="black"/>
<path d="M366.734 265.854C366.734 265.854 378.224 266.815 379.638 270.161C381.053 273.507 384.088 278.785 385.475 279.564C386.862 280.343 401.374 293.423 402.634 294.05C403.893 294.676 416.207 308.797 416.14 310.223C416.074 311.649 429.07 320.523 437.551 322.2C446.031 323.876 458.405 339.856 462.277 339.462C466.15 339.068 473.861 342.284 473.861 342.284C473.861 342.284 482.707 342.267 484.907 340.94C487.107 339.613 494.947 342.835 492.936 346.163C490.924 349.49 484.29 348.046 482.631 349.966C480.972 351.887 477.033 353.842 473.313 354.097C469.593 354.352 466.71 354.499 463.837 355.081C460.963 355.662 461.604 357.115 457.341 356.208C453.078 355.302 437.829 324.919 437.829 324.919L419.719 315.667C419.719 315.667 413.01 309.65 412.523 307.77C412.036 305.891 399.291 292.612 399.291 292.612L382.351 278.985L366.734 265.854Z" fill="#A3CF4D"/>
<path d="M423.724 332.207C423.724 332.207 441.706 317.73 442.606 316.635C443.054 316.07 448.71 312.203 454.312 308.392C461.271 303.686 467.833 298.419 473.934 292.644C478.02 288.78 482.381 284.935 483.834 284.68C486.787 284.149 494.191 284.78 495.592 287.41C496.993 290.041 503.324 294.998 503.324 294.998L508.633 301.512C508.633 301.512 521.35 312.371 529.453 322.16C537.557 331.95 547.139 342.569 550.74 343.117C554.34 343.665 559.613 348.566 559.613 348.566C559.613 348.566 567.216 352.727 569.817 355.888C572.417 359.049 576.846 362.206 581.484 362.609C586.122 363.012 578.841 366.294 571.177 365.458C563.513 364.622 554.235 361.819 550.883 362.237C547.531 362.656 538.239 362.312 538.318 360.605C538.397 358.899 539.529 354.956 539.529 354.956C539.529 354.956 529.678 345.964 519.346 343.681C509.013 341.397 486.988 323.352 487.541 315.487C487.541 315.487 484.333 315.052 480.363 320.573C480.363 320.573 477.604 322.729 472.849 328.876C468.095 335.022 462.359 343.882 462.359 343.882C462.359 343.882 453.331 360.187 446.697 359.744C440.063 359.302 432.98 358.205 432.98 358.205L424.444 351.536L424.212 343.91L423.724 332.207Z" fill="#A0616A"/>
<path opacity="0.05" d="M423.724 332.207C423.724 332.207 441.706 317.73 442.606 316.635C443.054 316.07 448.71 312.203 454.312 308.392C461.271 303.686 467.833 298.419 473.934 292.644C478.02 288.78 482.381 284.935 483.834 284.68C486.787 284.149 494.191 284.78 495.592 287.41C496.993 290.041 503.324 294.998 503.324 294.998L508.633 301.512C508.633 301.512 521.35 312.371 529.453 322.16C537.557 331.95 547.139 342.569 550.74 343.117C554.34 343.665 559.613 348.566 559.613 348.566C559.613 348.566 567.216 352.727 569.817 355.888C572.417 359.049 576.846 362.206 581.484 362.609C586.122 363.012 578.841 366.294 571.177 365.458C563.513 364.622 554.235 361.819 550.883 362.237C547.531 362.656 538.239 362.312 538.318 360.605C538.397 358.899 539.529 354.956 539.529 354.956C539.529 354.956 529.678 345.964 519.346 343.681C509.013 341.397 486.988 323.352 487.541 315.487C487.541 315.487 484.333 315.052 480.363 320.573C480.363 320.573 477.604 322.729 472.849 328.876C468.095 335.022 462.359 343.882 462.359 343.882C462.359 343.882 453.331 360.187 446.697 359.744C440.063 359.302 432.98 358.205 432.98 358.205L424.444 351.536L424.212 343.91L423.724 332.207Z" fill="black"/>
<path d="M427.671 333.246C427.671 333.246 445.646 318.774 446.552 317.674C447.458 316.573 469.629 301.816 469.629 301.816C469.629 301.816 484.802 286.265 487.779 285.736C490.756 285.206 498.137 285.836 499.537 288.467C500.938 291.097 507.263 296.054 507.263 296.054L512.572 302.573C512.572 302.573 525.283 313.432 533.387 323.221C541.49 333.011 551.078 343.631 554.673 344.178C558.268 344.726 563.546 349.634 563.546 349.634C563.546 349.634 571.15 353.788 573.75 356.949C576.351 360.11 580.779 363.268 585.417 363.67C590.055 364.073 582.774 367.355 575.11 366.519C567.446 365.683 558.163 362.886 554.816 363.299C551.47 363.711 542.176 363.403 542.258 361.649C542.339 359.896 543.475 356.001 543.475 356.001C543.475 356.001 533.625 346.991 523.269 344.7C512.914 342.41 490.952 324.391 491.487 316.532C491.487 316.532 488.273 316.096 484.309 321.617C484.309 321.617 481.55 323.773 476.795 329.92C472.04 336.067 466.304 344.932 466.304 344.932C466.304 344.932 457.277 361.219 450.637 360.788C443.997 360.357 436.925 359.25 436.925 359.25L428.39 352.58L428.158 344.954L427.671 333.246Z" fill="#A0616A"/>
<path opacity="0.1" d="M482.834 344.716C482.357 344.893 481.89 345.111 481.429 345.33L478.434 346.755C480.96 347.294 483.548 347.491 486.127 347.341C487.56 347.255 489.621 346.138 488.063 344.63C486.823 343.448 484.176 344.204 482.834 344.716Z" fill="black"/>
<path opacity="0.1" d="M469.383 346.118C470.982 345.876 472.703 345.645 474.153 346.339C474.648 346.607 475.114 346.925 475.544 347.289L477.996 349.236C475.781 349.779 473.514 350.086 471.234 350.152C470.931 350.179 470.625 350.153 470.33 350.075C469.947 349.92 469.603 349.679 469.326 349.372C467.421 347.632 466.127 346.611 469.383 346.118Z" fill="black"/>
<path opacity="0.1" d="M374.813 247.022C373.077 248.836 371.583 250.868 370.368 253.065C366.845 253.856 363.179 253.723 359.723 252.679C356.268 251.635 353.141 249.715 350.646 247.106C351.399 244.382 351.655 241.77 350.993 239.642C348.367 230.962 374.813 247.022 374.813 247.022Z" fill="black"/>
<path d="M364.819 252.983C376.347 253.519 386.125 244.607 386.66 233.08C387.196 221.552 378.284 211.773 366.757 211.238C355.229 210.703 345.45 219.614 344.915 231.142C344.38 242.67 353.291 252.448 364.819 252.983Z" fill="#A0616A"/>
<path d="M366.74 265.854L365.54 267.603L378.412 282.944L384.577 287.694L388.488 282.925L366.74 265.854Z" fill="#261C52"/>
<path d="M386.869 282.61C386.869 282.61 393.589 282.078 396.437 287.342C398.12 290.383 399.115 293.757 399.353 297.224C399.353 297.224 402.318 299.834 401.974 301.2C401.702 302.074 401.127 302.822 400.353 303.31C400.353 303.31 394.532 299.619 394.492 299.471C394.452 299.322 390.132 294.084 390.132 294.084L386.529 289.928L386.869 282.61Z" fill="#261C52"/>
<path opacity="0.1" d="M347.569 260.401C347.569 260.401 337.097 260.747 335.713 267.981C334.328 275.216 333.762 279.348 337.228 284.547C340.695 289.745 348.185 292.19 348.185 292.19C348.185 292.19 359.246 301.736 359.09 307.241C358.934 312.746 368.035 325.534 368.035 325.534C368.035 325.534 385.819 340.048 384.283 344.353C382.748 348.657 381.785 361.066 386.572 362.43C391.359 363.795 399.277 363.208 400.35 364.687C401.424 366.166 420.311 364.852 420.311 364.852C420.311 364.852 430.855 362.963 437.684 365.371C441.941 366.773 446.554 366.647 450.728 365.016C450.728 365.016 458.83 364.63 459.453 361.426C460.076 358.221 463.69 358.489 460.291 357.757C456.893 357.025 454.634 358.73 452.207 357.763C449.78 356.795 447.826 353.851 442.128 353.68C436.431 353.51 435.105 353.548 434.525 353.421C433.945 353.295 438.286 350.269 436.248 344.949C434.211 339.629 430.045 335.353 430.374 332.44C430.702 329.526 422.433 319.137 422.433 319.137C422.433 319.137 418.541 312.876 413.221 310.632C407.901 308.388 398.323 295.671 398.323 295.671C398.323 295.671 390.259 281.736 385.576 280.793C380.893 279.849 366.077 265.243 366.077 265.243C366.077 265.243 353.217 259.228 347.569 260.401Z" fill="black"/>
<path d="M347.262 260.955C347.262 260.955 336.784 261.318 335.389 268.534C333.993 275.751 333.438 279.901 336.904 285.106C340.37 290.31 347.866 292.743 347.866 292.743C347.866 292.743 358.928 302.289 358.766 307.8C358.604 313.31 367.711 326.087 367.711 326.087C367.711 326.087 385.506 340.608 383.976 344.93C382.445 349.252 381.484 361.644 386.265 363.008C391.046 364.372 398.975 363.791 400.043 365.264C401.111 366.737 420.004 365.429 420.004 365.429C420.004 365.429 430.553 363.546 437.382 365.954C441.637 367.353 446.246 367.223 450.415 365.587C450.415 365.587 458.517 365.202 459.14 362.003C459.763 358.804 463.377 359.06 459.978 358.334C456.579 357.608 454.321 359.307 451.894 358.334C449.467 357.36 447.513 354.422 441.815 354.257C436.117 354.093 434.792 354.119 434.212 353.998C433.632 353.878 437.967 350.845 435.935 345.52C433.904 340.195 429.727 335.912 430.074 332.982C430.421 330.052 422.133 319.68 422.133 319.68C422.133 319.68 418.241 313.419 412.927 311.175C407.613 308.931 398.028 296.22 398.028 296.22C398.028 296.22 389.959 282.285 385.282 281.335C380.604 280.386 365.776 265.815 365.776 265.815C365.776 265.815 352.905 259.782 347.262 260.955Z" fill="#A3CF4D"/>
<path opacity="0.1" d="M411.085 346.189C410.375 347.591 410.148 349.449 411.202 350.611C411.875 351.215 412.668 351.671 413.529 351.949C415.28 352.727 416.947 354.029 417.447 355.88C417.531 356.39 417.707 356.88 417.966 357.327C418.248 357.662 418.605 357.925 419.008 358.096C423.985 360.628 429.462 362.026 435.044 362.191C433.279 360.33 430.992 359.047 428.484 358.512C426.488 358.092 424.354 358.145 422.534 357.223C420.714 356.301 419.549 354.647 418.406 353.025C417.981 352.487 417.658 351.877 417.453 351.223C417.08 349.794 417.853 348.266 417.516 346.833C417.32 346.009 415.502 343.014 414.681 342.794C413.424 342.484 411.556 345.256 411.085 346.189Z" fill="black"/>
<path opacity="0.1" d="M486.373 314.391C487.559 314.065 493.555 313.23 491.865 310.891C490.325 308.746 487.661 314.011 486.373 314.391Z" fill="black"/>
<path d="M467.718 255.294L478.041 250.847L472.182 301.349L461.648 298.745L466.344 257.122C466.394 256.724 466.547 256.346 466.788 256.025C467.029 255.704 467.349 255.452 467.718 255.294Z" fill="#CBE3FF"/>
<path d="M478.041 250.847L472.182 301.349C472.57 301.367 472.949 301.237 473.245 300.987C473.542 300.737 473.732 300.384 473.78 300L479.605 253.379C479.671 252.842 479.552 252.299 479.267 251.839C478.983 251.378 478.551 251.028 478.041 250.847Z" fill="#C8BFCA"/>
<path d="M461.697 298.46L428.573 320.518C428.297 320.697 428.062 320.933 427.883 321.209C427.703 321.486 427.585 321.797 427.534 322.122C427.484 322.448 427.503 322.78 427.589 323.098C427.676 323.416 427.829 323.712 428.038 323.966L431.006 327.677L472.941 299.269L463.108 298.104C462.61 298.05 462.109 298.176 461.697 298.46Z" fill="#F1F1F2"/>
<path d="M460.762 300.813L438.486 314.915L441.34 318.31L467.34 301.569L460.762 300.813Z" fill="#7E7A98"/>
<path d="M431.017 327.678L472.941 299.269C473.231 299.953 473.274 300.717 473.064 301.429C472.854 302.142 472.402 302.759 471.787 303.176L434.957 328.218C434.351 328.635 433.611 328.81 432.883 328.71C432.154 328.61 431.489 328.242 431.017 327.678Z" fill="#C8BFCA"/>
<path d="M424.415 319.212C424.415 319.212 439.886 291.292 447.732 302.61C455.577 313.928 433.861 324.811 433.861 324.811L424.415 319.212Z" fill="#A0616A"/>
<path opacity="0.1" d="M351.194 268.752C348.357 269.352 345.722 270.67 343.541 272.58C341.36 274.49 339.706 276.928 338.738 279.661C337.674 282.757 337.579 286.203 340.582 288.65C347.457 294.241 357.338 298.414 361.59 307.263C364.24 313.044 365.97 319.204 366.718 325.519L377.945 343.865C377.945 343.865 379.51 349.643 391.915 345.756C404.321 341.868 411.096 339.892 411.096 339.892C411.096 339.892 420.789 335.257 425.101 333.601C425.71 333.325 426.354 333.13 427.014 333.022C428.434 333.088 439.009 324.856 439.532 323.68C440.055 322.503 429.537 317.024 425.191 317.906C425.191 317.906 424.458 320.45 416.409 319.695C408.361 318.941 405.162 322.219 405.162 322.219C405.162 322.219 401.242 320.608 398.676 320.629C396.109 320.651 391.577 317.957 388.097 318.094C388.097 318.094 390.013 314.668 387.875 311.64C385.737 308.612 383.633 308.778 382.846 305.274C382.394 303.273 380.892 296.906 379.671 291.789C378.086 284.976 374.586 278.759 369.584 273.87C366.321 270.714 362.389 268.089 358.326 268.047C355.93 268.013 353.537 268.25 351.194 268.752Z" fill="black"/>
<path opacity="0.1" d="M351.511 267.338C348.672 267.939 346.035 269.258 343.851 271.168C341.667 273.079 340.01 275.518 339.037 278.252C337.979 281.348 337.878 284.788 340.887 287.235C347.756 292.826 357.644 296.999 361.89 305.848C364.546 311.628 366.282 317.788 367.035 324.105L378.261 342.457C378.261 342.457 379.821 348.234 392.232 344.341C404.644 340.448 411.413 338.483 411.413 338.483C411.413 338.483 421.106 333.843 425.412 332.192C426.021 331.914 426.664 331.719 427.325 331.613C428.751 331.679 439.325 323.448 439.843 322.271C440.36 321.094 429.854 315.616 425.507 316.498C425.507 316.498 424.774 319.041 416.726 318.287C408.677 317.532 405.479 320.805 405.479 320.805C405.479 320.805 401.559 319.199 398.992 319.221C396.426 319.242 391.888 316.548 388.414 316.685C388.414 316.685 390.33 313.26 388.186 310.231C386.042 307.203 383.949 307.375 383.157 303.865C382.711 301.87 381.202 295.503 379.987 290.38C378.401 283.568 374.901 277.351 369.9 272.462C366.632 269.305 362.706 266.68 358.641 266.667C356.247 266.621 353.855 266.846 351.511 267.338Z" fill="black"/>
<path d="M351.233 267.899C348.397 268.499 345.762 269.816 343.581 271.727C341.4 273.637 339.746 276.075 338.777 278.808C337.714 281.904 337.618 285.35 340.621 287.797C347.496 293.388 357.378 297.561 361.63 306.41C364.28 312.191 366.01 318.35 366.757 324.666L377.984 343.012C377.984 343.012 379.549 348.79 391.955 344.896C404.361 341.003 411.136 339.039 411.136 339.039C411.136 339.039 420.829 334.398 425.14 332.747C425.749 332.469 426.393 332.274 427.053 332.168C428.474 332.234 439.048 324.003 439.571 322.827C440.095 321.65 429.577 316.171 425.23 317.053C425.23 317.053 424.497 319.596 416.449 318.842C408.4 318.088 405.202 321.36 405.202 321.36C405.202 321.36 401.282 319.755 398.715 319.776C396.149 319.798 391.617 317.104 388.137 317.241C388.137 317.241 390.053 313.815 387.915 310.787C385.777 307.759 383.672 307.931 382.886 304.426C382.434 302.426 380.931 296.059 379.71 290.935C378.125 284.125 374.625 277.909 369.623 273.023C366.361 269.861 362.429 267.241 358.364 267.228C355.969 267.184 353.578 267.409 351.233 267.899Z" fill="#A3CF4D"/>
<path opacity="0.1" d="M390.685 225.61C392.794 224.982 394.76 223.386 395.182 221.227C395.384 219.777 395.11 218.3 394.399 217.02C392.021 212.223 386.905 209.49 381.954 207.515C377.002 205.539 371.79 203.991 366.463 204.043C361.136 204.094 355.658 205.884 352.031 209.816C351.387 210.628 350.636 211.35 349.799 211.962C348.539 212.741 346.972 212.803 345.496 212.682C340.629 212.274 335.628 210.109 331.045 211.794C325.539 213.812 323.338 220.346 322.366 226.135C321.364 232.087 320.905 238.175 319.051 243.923C317.197 249.672 313.683 255.208 308.253 257.85C306.665 258.62 304.949 259.131 303.465 260.058C301.981 260.985 300.652 262.476 300.564 264.241C300.453 266.643 302.522 268.508 303.546 270.682C304.292 272.269 304.522 274.137 305.697 275.433C308.031 278.025 312.439 276.824 315.514 278.478C318.246 279.952 319.297 283.298 321.393 285.592C323.857 288.29 327.626 289.367 331.25 289.787C333.237 290.014 335.302 290.075 337.173 289.383C340.904 288.003 343.039 283.914 343.439 279.961C343.839 276.008 342.88 272.063 342.231 268.137C342.015 266.844 341.845 265.466 342.41 264.268C342.888 263.349 343.601 262.574 344.477 262.021C348.955 258.808 355.182 257.533 357.889 252.732C359.708 249.507 359.393 245.562 359.961 241.904C360.175 240.572 360.574 239.167 361.61 238.296C362.878 237.236 364.698 237.268 366.348 237.198C371.241 236.933 375.931 235.15 379.764 232.097C381.625 230.62 382.797 228.724 384.431 227.095C386.064 225.466 388.553 226.232 390.685 225.61Z" fill="black"/>
<path d="M390.127 225.016C392.235 224.382 394.202 222.786 394.624 220.627C394.823 219.178 394.546 217.703 393.835 216.425C391.463 211.629 386.341 208.896 381.389 206.915C376.438 204.933 371.22 203.397 365.899 203.448C360.577 203.5 355.094 205.29 351.461 209.222C350.818 210.033 350.07 210.755 349.235 211.368C347.975 212.147 346.407 212.215 344.931 212.088C340.065 211.686 335.063 209.521 330.475 211.2C324.968 213.223 322.767 219.757 321.796 225.541C320.799 231.499 320.341 237.581 318.487 243.329C316.632 249.077 313.112 254.619 307.683 257.255C306.095 258.031 304.378 258.537 302.894 259.47C301.41 260.402 300.081 261.887 300 263.647C299.888 266.049 301.957 267.92 302.981 270.094C303.722 271.674 303.957 273.548 305.103 274.843C307.444 277.43 311.852 276.228 314.92 277.888C317.657 279.362 318.709 282.709 320.805 285.003C323.263 287.694 327.032 288.777 330.662 289.192C332.643 289.424 334.714 289.479 336.585 288.787C340.316 287.408 342.451 283.325 342.851 279.372C343.251 275.419 342.286 271.467 341.642 267.548C341.433 266.255 341.263 264.877 341.793 263.677C342.275 262.759 342.989 261.984 343.865 261.43C348.337 258.223 354.564 256.948 357.271 252.147C359.09 248.922 358.775 244.977 359.349 241.319C359.564 239.982 359.963 238.577 360.993 237.711C362.267 236.645 364.087 236.683 365.73 236.613C370.625 236.343 375.316 234.559 379.153 231.507C381.013 230.035 382.179 228.133 383.819 226.504C385.459 224.876 388.011 225.656 390.127 225.016Z" fill="#3C354C"/>
<g opacity="0.1">
<path opacity="0.1" d="M313.592 276.092C310.735 274.554 306.708 275.492 304.28 273.528C304.495 273.998 304.777 274.436 305.116 274.826C307.456 277.413 311.864 276.211 314.933 277.871C315.629 278.252 316.252 278.753 316.774 279.351C316 278.017 314.907 276.898 313.592 276.092Z" fill="black"/>
<path opacity="0.1" d="M393.854 216.426C393.319 215.345 392.64 214.34 391.837 213.439C392.093 213.827 392.327 214.229 392.537 214.643C393.247 215.921 393.522 217.396 393.32 218.844C392.898 221.004 390.932 222.599 388.823 223.234C386.714 223.868 384.145 223.058 382.516 224.698C380.888 226.339 379.705 228.229 377.844 229.701C374.009 232.753 369.321 234.537 364.427 234.807C362.772 234.882 360.952 234.839 359.69 235.905C358.654 236.77 358.255 238.181 358.046 239.513C357.455 243.164 357.787 247.116 355.968 250.341C353.262 255.136 347.035 256.411 342.557 259.624C341.683 260.179 340.97 260.954 340.49 261.871C339.954 263.064 340.124 264.449 340.34 265.742C340.989 269.661 341.954 273.607 341.548 277.566C341.142 281.524 339.008 285.602 335.283 286.981C333.405 287.673 331.34 287.612 329.354 287.385C325.729 286.971 321.961 285.871 319.496 283.197L319.463 283.154C319.873 283.798 320.334 284.407 320.843 284.975C323.301 287.667 327.07 288.75 330.7 289.164C332.681 289.397 334.752 289.452 336.624 288.76C340.354 287.381 342.489 283.297 342.889 279.344C343.289 275.391 342.324 271.44 341.68 267.52C341.471 266.228 341.301 264.849 341.831 263.649C342.313 262.732 343.027 261.957 343.903 261.403C348.375 258.195 354.602 256.92 357.309 252.12C359.128 248.894 358.813 244.949 359.387 241.291C359.602 239.954 360.001 238.549 361.037 237.684C362.305 236.618 364.125 236.655 365.774 236.585C370.669 236.316 375.36 234.532 379.196 231.48C381.057 230.008 382.223 228.106 383.863 226.477C385.503 224.849 388.042 225.658 390.175 225.013C392.308 224.368 394.25 222.783 394.673 220.623C394.862 219.173 394.574 217.7 393.854 216.426Z" fill="black"/>
</g>
<defs>
<linearGradient id="paint0_linear" x1="440.997" y1="369.719" x2="448.601" y2="205.899" gradientUnits="userSpaceOnUse">
<stop stop-color="#808080" stop-opacity="0.25"/>
<stop offset="0.54" stop-color="#808080" stop-opacity="0.12"/>
<stop offset="1" stop-color="#808080" stop-opacity="0.1"/>
</linearGradient>
<clipPath id="clip0">
<rect width="659" height="360.138" fill="white" transform="translate(207 270)"/>
</clipPath>
</defs>
</svg>
