<svg width="82" height="108" viewBox="0 0 82 108" fill="none" xmlns="http://www.w3.org/2000/svg">
<path d="M81.9999 54C81.9999 76.8571 63.6571 95.4103 41.0004 95.4103C18.3908 95.4103 0.000976562 76.9022 0.000976562 54C0.000976562 31.8094 17.2809 13.6969 38.9906 12.6391C62.194 11.4641 81.9999 30.1695 81.9999 54Z" fill="#F3F1E9"/>
<path d="M81.2442 46.0466C78.5413 48.1823 75.3929 49.7735 72.1463 50.937C70.3481 51.5807 68.4675 52.1096 66.5624 52.0263C62.8836 51.8643 59.4432 49.1816 58.3558 45.6302C57.9726 44.3744 57.8545 43.024 57.2506 41.8605C55.7332 38.9393 51.8962 38.3091 48.6296 38.3766C43.2312 38.4847 36.5608 39.7047 31.5435 36.2453C30.2645 35.3654 29.0835 33.8845 29.5002 32.3789C29.6446 31.8572 29.9124 31.5642 29.9124 31.5417C37.3636 28.8275 46.3568 26.9933 57.0412 26.9933V32.3744C57.0412 35.3541 60.4058 37.0533 62.7655 35.2664L72.7012 27.7405C77.0609 33.0991 79.9754 39.4288 81.2442 46.0466Z" fill="#D4D2DC"/>
<path d="M81.9798 55.321C81.2891 77.5791 63.207 95.4103 41.0004 95.4103C24.803 95.4103 10.8716 85.9346 4.2168 72.3083C6.05954 70.8477 13.9383 63.9729 24.9561 65.9876C29.3053 66.7829 36.8127 73.1043 40.9995 74.5289C56.0802 79.6602 68.7085 74.4351 78.096 61.4583C79.5132 59.5026 80.7454 57.4096 81.9798 55.321Z" fill="#261C52"/>
<path d="M79.862 22.3143L62.7648 35.2663C60.4051 37.0532 57.0405 35.3541 57.0405 32.3743V26.9932C46.3138 26.9932 37.2961 28.8409 29.8271 31.5731C8.7458 39.2768 0 54 0 54C0 29.1403 19.9516 8.98871 44.5646 8.98871H57.0405V3.62112C57.0405 0.643626 60.4051 -1.0578 62.7648 0.729147C77.4428 11.8481 73.7847 9.07671 79.862 13.6811C82.7119 15.8394 82.7119 20.156 79.862 22.3143Z" fill="#FFD33A"/>
<path d="M81.9994 54C81.9994 78.855 62.0512 99.0113 37.4348 99.0113H24.959V104.379C24.959 107.356 21.5943 109.058 19.2346 107.271C4.55662 96.1519 8.21471 98.9233 2.13743 94.3188C-0.712477 92.1605 -0.712477 87.844 2.13743 85.6857L19.2346 72.7337C21.5943 70.9467 24.959 72.6459 24.959 75.6257V81.0068C35.6857 81.0068 44.7033 79.159 52.1723 76.4269C73.2536 68.7232 81.9994 54 81.9994 54Z" fill="#FFC600"/>
<path d="M78.8507 70.6519C72.2953 87.2678 56.2231 99.0112 37.4346 99.0112H24.9699C24.6551 95.517 28.8357 91.3354 32.0869 90.0225C40.9998 86.4216 45.8328 90.018 51.6953 88.222C58.0792 86.2663 65.3031 82.0735 70.0782 77.3675C72.6774 74.8041 75.3894 71.9295 78.8507 70.6519Z" fill="#FFD33A"/>
<path d="M10.1349 42.8685C11.9108 38.1027 13.821 34.5101 17.7173 30.6999C18.6803 29.7582 20.1955 28.3154 21.4948 28.648C23.7349 29.2217 25.2657 35.4153 21.7188 39.3918C20.2007 41.0939 18.06 42.1042 16.43 43.6973C13.4001 46.6588 12.5186 51.3092 13.0521 55.5337C13.5659 59.6021 10.9999 61.8029 9.48688 57.0873C8.18827 53.039 8.70522 46.705 10.1349 42.8685Z" fill="white"/>
<path d="M11.6742 91.5403C13.35 93.7743 15.9441 94.1321 17.1333 93.3577C17.626 93.037 17.9714 92.4464 17.8907 91.8599C17.7483 90.8256 16.5246 90.3851 15.8644 89.5812C15.1754 88.7422 15.0854 87.4569 14.2275 86.7957C13.7478 86.4259 13.0929 86.3298 12.5051 86.4683C10.0199 87.053 10.4545 89.9143 11.6742 91.5403Z" fill="white"/>
<path d="M36.3562 56.6007L28.9016 70.9921C28.7709 71.2383 28.738 71.5256 28.8094 71.7956C28.8808 72.0655 29.0513 72.2979 29.2862 72.4455C29.521 72.5931 29.8027 72.6449 30.0741 72.5904C30.3454 72.5358 30.586 72.379 30.747 72.1518L40.2157 59.0307L36.3562 56.6007Z" fill="#A3CF4D"/>
<path d="M46.002 56.6007L53.4521 70.9829C53.5571 71.2242 53.5728 71.4955 53.4963 71.7476C53.4199 71.9996 53.2564 72.2155 53.0356 72.356C52.8148 72.4965 52.5514 72.5523 52.2933 72.5131C52.0352 72.4739 51.7996 72.3425 51.6295 72.1426L42.1426 59.0307L46.002 56.6007Z" fill="#A3CF4D"/>
<path d="M58.2508 37.8464C58.1979 37.7928 58.135 37.7503 58.0658 37.7213C57.9966 37.6923 57.9225 37.6774 57.8475 37.6774C57.7726 37.6774 57.6984 37.6923 57.6292 37.7213C57.56 37.7503 57.4972 37.7928 57.4443 37.8464L48.249 47.1292L49.0555 47.9438L58.2508 38.6518C58.3563 38.5448 58.4155 38.4 58.4155 38.2491C58.4155 38.0981 58.3563 37.9533 58.2508 37.8464Z" fill="#EAB053"/>
<path d="M57.4301 38.6748C56.3272 37.5565 54.8315 36.9237 53.2688 36.9142C51.7061 36.9047 50.203 37.5193 49.0869 38.6241L57.4757 47.0969C58.5687 45.9705 59.1772 44.4536 59.1687 42.8764C59.1601 41.2991 58.5353 39.7891 57.4301 38.6748Z" fill="#FCD462"/>
<path d="M23.9576 37.8464C24.0105 37.7928 24.0734 37.7503 24.1426 37.7213C24.2118 37.6923 24.286 37.6774 24.3609 37.6774C24.4358 37.6774 24.51 37.6923 24.5792 37.7213C24.6484 37.7503 24.7112 37.7928 24.7642 37.8464L33.9594 47.1292L33.1529 47.9438L23.9576 38.6518C23.8522 38.5448 23.793 38.4 23.793 38.2491C23.793 38.0981 23.8522 37.9533 23.9576 37.8464Z" fill="#EAB053"/>
<path d="M24.7777 38.6748C25.8806 37.5565 27.3763 36.9237 28.939 36.9142C30.5017 36.9047 32.0048 37.5193 33.1209 38.6241L24.7322 47.0969C23.6391 45.9705 23.0306 44.4536 23.0392 42.8764C23.0477 41.2991 23.6725 39.7891 24.7777 38.6748Z" fill="#FCD462"/>
<path d="M41.1775 68.7967C49.3689 68.7967 56.0093 62.0897 56.0093 53.8163C56.0093 45.5428 49.3689 38.8358 41.1775 38.8358C32.9861 38.8358 26.3457 45.5428 26.3457 53.8163C26.3457 62.0897 32.9861 68.7967 41.1775 68.7967Z" fill="#FCD462"/>
<path d="M41.177 65.704C47.6772 65.704 52.9467 60.3817 52.9467 53.8163C52.9467 47.2509 47.6772 41.9286 41.177 41.9286C34.6767 41.9286 29.4072 47.2509 29.4072 53.8163C29.4072 60.3817 34.6767 65.704 41.177 65.704Z" fill="#EBF0F3"/>
<path d="M41.0488 43.9719H41.304V44.9614H41.0488V43.9719Z" fill="#64798A"/>
<path d="M41.0488 62.6664H41.304V63.6559H41.0488V62.6664Z" fill="#64798A"/>
<path d="M49.9434 53.6873H50.923V53.945H49.9434V53.6873Z" fill="#64798A"/>
<path d="M31.4346 53.6873H32.4142V53.945H31.4346V53.6873Z" fill="#64798A"/>
<path d="M47.2773 47.4655L47.9701 46.7658L48.1505 46.948L47.4578 47.6477L47.2773 47.4655Z" fill="#64798A"/>
<path d="M34.1914 60.6787L34.8841 59.979L35.0646 60.1613L34.3718 60.861L34.1914 60.6787Z" fill="#64798A"/>
<path d="M47.2754 60.1649L47.4558 59.9827L48.1486 60.6824L47.9681 60.8646L47.2754 60.1649Z" fill="#64798A"/>
<path d="M34.1904 46.9458L34.3709 46.7636L35.0636 47.4632L34.8832 47.6455L34.1904 46.9458Z" fill="#64798A"/>
<path d="M37.1494 44.7539L37.3842 44.656L37.7564 45.5663L37.5217 45.6642L37.1494 44.7539Z" fill="#64798A"/>
<path d="M44.4043 62.052L44.6401 61.9535L45.0144 62.868L44.7786 62.9664L44.4043 62.052Z" fill="#64798A"/>
<path d="M49.2158 50.2808L50.1203 49.9007L50.2184 50.1386L49.3138 50.5187L49.2158 50.2808Z" fill="#64798A"/>
<path d="M32.127 57.4351L33.0315 57.055L33.1295 57.2929L32.225 57.673L32.127 57.4351Z" fill="#64798A"/>
<path d="M44.4326 45.5942L44.8077 44.6802L45.0435 44.7788L44.6683 45.6929L44.4326 45.5942Z" fill="#64798A"/>
<path d="M37.3457 62.8726L37.7208 61.9585L37.9566 62.0572L37.5814 62.9712L37.3457 62.8726Z" fill="#64798A"/>
<path d="M49.2275 57.3538L49.3256 57.1158L50.2301 57.4959L50.1321 57.7338L49.2275 57.3538Z" fill="#64798A"/>
<path d="M32.1201 50.1921L32.2181 49.9542L33.1227 50.3343L33.0246 50.5722L32.1201 50.1921Z" fill="#64798A"/>
<path d="M41.3596 46.6505H40.9404L40.708 54.0924H41.592L41.3596 46.6505Z" fill="#3A556A"/>
<path d="M46.9136 54.0878V53.5447L41.6143 53.241V54.3915L46.9136 54.0878Z" fill="#3A556A"/>
<path d="M35.7334 59.257L41.1198 53.8166L41.3002 53.9988L35.9138 59.4392L35.7334 59.257Z" fill="#E56353"/>
<path d="M41.177 52.6243C40.9446 52.6243 40.7173 52.6937 40.5238 52.8237C40.3302 52.9537 40.179 53.1385 40.089 53.3549C39.9991 53.5714 39.9744 53.8099 40.0181 54.0405C40.0619 54.271 40.172 54.4834 40.3348 54.651C40.4976 54.8186 40.7057 54.9339 40.9331 54.9825C41.1605 55.031 41.3971 55.0107 41.6131 54.924C41.8291 54.8373 42.0149 54.6881 42.1473 54.4951C42.2797 54.3021 42.3527 54.074 42.3572 53.8393C42.3602 53.6808 42.3319 53.5233 42.274 53.376C42.216 53.2288 42.1296 53.0946 42.0197 52.9815C41.9098 52.8684 41.7787 52.7785 41.634 52.7172C41.4893 52.6558 41.3339 52.6242 41.177 52.6243Z" fill="#64798A"/>
</svg>
