<svg width="92" height="108" viewBox="0 0 92 108" fill="none" xmlns="http://www.w3.org/2000/svg">
<path d="M88.4797 6.32812H53.0409H17.8368C15.8926 6.32812 14.3164 7.74436 14.3164 9.49219V101.672H53.0409H65.107C68.4138 105.354 76.6021 108 81.2042 108C86.9408 108 92.0001 103.783 92.0001 98.5078V9.49219C92.0001 7.74436 90.4239 6.32812 88.4797 6.32812Z" fill="#261C52"/>
<path d="M81.2043 108C86.9409 108 92.0002 103.783 92.0002 98.5078V9.49219C92.0002 7.74436 90.424 6.32812 88.4798 6.32812H53.041V101.672H65.1071C68.4139 105.354 76.6022 108 81.2043 108Z" fill="#D4D2DC"/>
<path d="M37.0808 36.574L37.0807 36.5739L30.0398 30.2457C29.0682 29.3725 29.0682 28.0024 30.0398 27.1292C31.0679 26.2051 32.7696 26.2051 33.7977 27.1291C33.7977 27.1292 33.7977 27.1292 33.7977 27.1292L38.3494 31.2203L38.9595 31.7687L39.5696 31.2203L44.1215 27.1292C45.1496 26.2051 46.8513 26.2051 47.8794 27.1292C48.851 28.0024 48.851 29.3725 47.8794 30.2457L40.8385 36.5739C40.334 37.0273 39.6568 37.267 38.9595 37.267C38.2621 37.267 37.585 37.0273 37.0808 36.574Z" fill="#9CDD05" stroke="#261C52" stroke-width="1.8254"/>
<path d="M37.0808 55.5582L37.0807 55.5581L30.0398 49.23C29.0682 48.3567 29.0682 46.9867 30.0398 46.1134C31.0679 45.1894 32.7696 45.1894 33.7977 46.1134C33.7977 46.1134 33.7977 46.1134 33.7977 46.1134L38.3494 50.2045L38.9595 50.7529L39.5696 50.2046L44.1215 46.1134C45.1496 45.1894 46.8513 45.1894 47.8794 46.1134C48.851 46.9867 48.851 48.3567 47.8794 49.23L40.8385 55.5581C40.334 56.0116 39.6568 56.2513 38.9595 56.2513C38.2621 56.2513 37.585 56.0116 37.0808 55.5582Z" fill="#9CDD05" stroke="#261C52" stroke-width="1.8254"/>
<path d="M37.0808 74.5426L37.0807 74.5425L30.0398 68.2144C29.0682 67.3411 29.0682 65.9711 30.0398 65.0978C31.0679 64.1738 32.7696 64.1738 33.7977 65.0978C33.7977 65.0978 33.7977 65.0978 33.7977 65.0978L38.3494 69.1889L38.9595 69.7373L39.5696 69.1889L44.1215 65.0978C45.1496 64.1738 46.8513 64.1738 47.8794 65.0978C48.851 65.9711 48.851 67.3411 47.8794 68.2144L40.8385 74.5425C40.334 74.996 39.6568 75.2357 38.9595 75.2357C38.2621 75.2357 37.585 74.9959 37.0808 74.5426Z" fill="#9CDD05" stroke="#261C52" stroke-width="1.8254"/>
<path d="M80.0306 34.5593H58.9081C57.1673 34.5593 55.844 33.3038 55.844 31.8516C55.844 30.3993 57.1673 29.1438 58.9081 29.1438H80.0306C81.7714 29.1438 83.0946 30.3993 83.0946 31.8516C83.0946 33.3038 81.7714 34.5593 80.0306 34.5593Z" fill="#FFD33A" stroke="#D4D2DC" stroke-width="0.912698"/>
<path d="M58.9081 48.1282H80.0306C81.7714 48.1282 83.0946 49.3837 83.0946 50.8359C83.0946 52.2882 81.7714 53.5437 80.0306 53.5437H58.9081C57.1673 53.5437 55.844 52.2882 55.844 50.8359C55.844 49.3837 57.1673 48.1282 58.9081 48.1282Z" fill="#FFD33A" stroke="#D4D2DC" stroke-width="0.912698"/>
<path d="M58.9081 67.1126H80.0306C81.7714 67.1126 83.0946 68.3681 83.0946 69.8203C83.0946 71.2726 81.7714 72.528 80.0306 72.528H58.9081C57.1673 72.528 55.844 71.2726 55.844 69.8203C55.844 68.3681 57.1673 67.1126 58.9081 67.1126Z" fill="#FFD33A" stroke="#D4D2DC" stroke-width="0.912698"/>
<path d="M67.1231 0H53.0415H38.9599C37.014 0 35.4395 1.41518 35.4395 3.16406V9.49219C35.4395 11.2411 37.014 12.6562 38.9599 12.6562H53.0415H67.1231C69.069 12.6562 70.6435 11.2411 70.6435 9.49219V3.16406C70.6435 1.41518 69.069 0 67.1231 0Z" fill="#FFD33A"/>
<path d="M46.2341 7.59375H42.479H38.7239C38.205 7.59375 37.7852 7.97113 37.7852 8.4375V10.125C37.7852 10.5914 38.205 10.9688 38.7239 10.9688H42.479H46.2341C46.753 10.9688 47.1729 10.5914 47.1729 10.125V8.4375C47.1729 7.97113 46.753 7.59375 46.2341 7.59375Z" fill="white"/>
<path d="M83.5508 78.7008V88.9102V99.1195C83.5508 100.53 83.9707 101.672 84.4896 101.672H86.3671C86.886 101.672 87.3059 100.53 87.3059 99.1195V88.9102V78.7008C87.3059 77.29 86.886 76.1484 86.3671 76.1484H84.4896C83.9707 76.1484 83.5508 77.29 83.5508 78.7008Z" fill="white"/>
<path d="M70.6421 9.49219V3.16406C70.6421 1.41518 69.0675 0 67.1217 0H53.04V12.6562H67.1217C69.0675 12.6562 70.6421 11.2411 70.6421 9.49219Z" fill="#A3CF4D"/>
<path d="M70.6429 98.5078C70.6429 96.76 69.0667 95.3438 67.1224 95.3438H53.0408H3.52041C1.5762 95.3438 0 96.76 0 98.5078V101.672C0 105.166 3.15217 108 7.04082 108H53.0408H81.2041C75.36 108 70.6429 103.76 70.6429 98.5078Z" fill="#D4D2DC"/>
<path d="M70.6431 98.5078C70.6431 96.76 69.0669 95.3438 67.1226 95.3438H53.041V108H81.2043C75.3602 108 70.6431 103.76 70.6431 98.5078Z" fill="#261C52"/>
</svg>
